<svg width="644" height="400" viewBox="0 0 644 400" fill="none" xmlns="http://www.w3.org/2000/svg">
<path d="M638.171 -102L643.392 -101.025L633.378 -44.5414L628.158 -45.5233L638.171 -102Z" fill="url(#paint0_radial_1433_973)" fill-opacity="0.18"/>
<path d="M558.169 -101.066L563.465 -100.707L559.897 -45.3505L554.6 -45.71L558.169 -101.066Z" fill="url(#paint1_radial_1433_973)" fill-opacity="0.18"/>
<path d="M479.777 -100.403L482.647 -46.1733L477.35 -45.876L474.481 -100.105L479.777 -100.403Z" fill="url(#paint2_radial_1433_973)" fill-opacity="0.18"/>
<path d="M404.844 -100.112L414.159 -47.0101L408.938 -46.0419L399.623 -99.144L404.844 -100.112Z" fill="url(#paint3_radial_1433_973)" fill-opacity="0.18"/>
<path d="M326.267 -99.8147L342.026 -47.84L336.958 -46.2079L321.205 -98.1896L326.267 -99.8147Z" fill="url(#paint4_radial_1433_973)" fill-opacity="0.18"/>
<path d="M244.605 -99.4897L266.803 -48.6421L261.962 -46.4016L239.764 -97.256L244.605 -99.4897Z" fill="url(#paint5_radial_1433_973)" fill-opacity="0.18"/>
<path d="M160.488 -98.7498L195.576 -50.1496L191.316 -46.8926L156.228 -95.4927L160.488 -98.7498Z" fill="url(#paint6_radial_1433_973)" fill-opacity="0.18"/>
<path d="M74.7877 -98.321L116.313 -50.8411L112.372 -47.1899L70.8392 -94.6628L74.7877 -98.321Z" fill="url(#paint7_radial_1433_973)" fill-opacity="0.18"/>
<path d="M3.63696 -97.8577L51.6079 -51.505L47.9706 -47.5219L-0.000305176 -93.8746L3.63696 -97.8577Z" fill="url(#paint8_radial_1433_973)" fill-opacity="0.18"/>
<path d="M638.205 -18.312L643.357 -17.0049L633.344 24.7284L628.192 23.4214L638.205 -18.312Z" fill="url(#paint9_radial_1433_973)" fill-opacity="0.18"/>
<path d="M558.175 -17.4406L563.465 -16.9496L559.89 23.9539L554.607 23.4629L558.175 -17.4406Z" fill="url(#paint10_radial_1433_973)" fill-opacity="0.18"/>
<path d="M479.777 -16.9359L482.647 23.1379L477.35 23.5389L474.481 -16.5347L479.777 -16.9359Z" fill="url(#paint11_radial_1433_973)" fill-opacity="0.18"/>
<path d="M404.81 -16.915L414.124 22.3219L408.973 23.6219L399.658 -15.6219L404.81 -16.915Z" fill="url(#paint12_radial_1433_973)" fill-opacity="0.18"/>
<path d="M326.184 -16.8666L341.936 21.5405L337.047 23.6635L321.288 -14.7437L326.184 -16.8666Z" fill="url(#paint13_radial_1433_973)" fill-opacity="0.18"/>
<path d="M244.453 -16.7629L266.651 20.8144L262.114 23.6565L239.916 -13.9208L244.453 -16.7629Z" fill="url(#paint14_radial_1433_973)" fill-opacity="0.18"/>
<path d="M160.232 -16.348L195.313 19.5627L191.572 23.4352L156.491 -12.4755L160.232 -16.348Z" fill="url(#paint15_radial_1433_973)" fill-opacity="0.18"/>
<path d="M74.4974 -16.0645L116.023 19.0164L112.656 23.2416L71.1296 -11.8393L74.4974 -16.0645Z" fill="url(#paint16_radial_1433_973)" fill-opacity="0.18"/>
<path d="M3.3327 -15.7326L51.3036 18.5185L48.2749 23.0065L0.303955 -11.2446L3.3327 -15.7326Z" fill="url(#paint17_radial_1433_973)" fill-opacity="0.18"/>
<path d="M638.24 65.2308L643.322 66.8006L633.309 101.273L628.22 99.7101L638.24 65.2308Z" fill="url(#paint18_radial_1433_973)" fill-opacity="0.18"/>
<path d="M558.182 66.1021L563.459 66.6968L559.884 100.485L554.607 99.8899L558.182 66.1021Z" fill="url(#paint19_radial_1433_973)" fill-opacity="0.18"/>
<path d="M479.771 66.5378L482.64 99.6409L477.357 100.125L474.487 67.0219L479.771 66.5378Z" fill="url(#paint20_radial_1433_973)" fill-opacity="0.18"/>
<path d="M404.775 66.3925L414.09 98.8042L409 100.353L399.686 67.9416L404.775 66.3925Z" fill="url(#paint21_radial_1433_973)" fill-opacity="0.18"/>
<path d="M326.101 66.3027L341.854 98.0297L337.13 100.519L321.371 68.7922L326.101 66.3027Z" fill="url(#paint22_radial_1433_973)" fill-opacity="0.18"/>
<path d="M244.321 66.3096L266.519 97.352L262.246 100.588L240.048 69.5528L244.321 66.3096Z" fill="url(#paint23_radial_1433_973)" fill-opacity="0.18"/>
<path d="M160.046 66.5862L195.126 96.2525L191.759 100.471L156.678 70.8045L160.046 66.5862Z" fill="url(#paint24_radial_1433_973)" fill-opacity="0.18"/>
<path d="M74.3035 66.8213L115.83 95.7961L112.856 100.319L71.3234 71.3439L74.3035 66.8213Z" fill="url(#paint25_radial_1433_973)" fill-opacity="0.18"/>
<path d="M3.13922 67.091L51.1102 95.3881L48.4684 100.125L0.497437 71.8348L3.13922 67.091Z" fill="url(#paint26_radial_1433_973)" fill-opacity="0.18"/>
<path d="M638.295 145.793L643.26 147.709L633.247 175.21L628.282 173.295L638.295 145.793Z" fill="url(#paint27_radial_1433_973)" fill-opacity="0.18"/>
<path d="M558.189 146.685L563.452 147.425L559.876 174.374L554.621 173.641L558.189 146.685Z" fill="url(#paint28_radial_1433_973)" fill-opacity="0.18"/>
<path d="M479.764 147.059L482.633 173.461L477.364 174.069L474.487 147.667L479.764 147.059Z" fill="url(#paint29_radial_1433_973)" fill-opacity="0.18"/>
<path d="M404.72 146.72L414.035 172.576L409.055 174.471L399.748 148.615L404.72 146.72Z" fill="url(#paint30_radial_1433_973)" fill-opacity="0.18"/>
<path d="M325.969 146.498L341.729 171.808L337.262 174.754L321.502 149.444L325.969 146.498Z" fill="url(#paint31_radial_1433_973)" fill-opacity="0.18"/>
<path d="M244.135 146.429L266.333 171.186L262.432 174.892L240.234 150.129L244.135 146.429Z" fill="url(#paint32_radial_1433_973)" fill-opacity="0.18"/>
<path d="M159.817 146.609L194.898 170.266L191.987 174.837L156.906 151.173L159.817 146.609Z" fill="url(#paint33_radial_1433_973)" fill-opacity="0.18"/>
<path d="M74.0756 146.796L115.601 169.906L113.077 174.713L71.5513 151.595L74.0756 146.796Z" fill="url(#paint34_radial_1433_973)" fill-opacity="0.18"/>
<path d="M2.9248 147.017L50.8887 169.581L48.6828 174.547L0.711853 151.982L2.9248 147.017Z" fill="url(#paint35_radial_1433_973)" fill-opacity="0.18"/>
<path d="M638.364 223.638L643.198 225.892L633.185 248.636L628.351 246.382L638.364 223.638Z" fill="url(#paint36_radial_1433_973)" fill-opacity="0.18"/>
<path d="M558.203 224.571L563.438 225.463L559.87 247.751L554.628 246.866L558.203 224.571Z" fill="url(#paint37_radial_1433_973)" fill-opacity="0.18"/>
<path d="M479.757 224.903L482.627 246.741L477.371 247.474L474.501 225.636L479.757 224.903Z" fill="url(#paint38_radial_1433_973)" fill-opacity="0.18"/>
<path d="M404.651 224.405L413.965 245.787L409.125 248.028L399.81 226.639L404.651 224.405Z" fill="url(#paint39_radial_1433_973)" fill-opacity="0.18"/>
<path d="M325.831 224.101L341.591 245.033L337.393 248.38L321.64 227.448L325.831 224.101Z" fill="url(#paint40_radial_1433_973)" fill-opacity="0.18"/>
<path d="M243.955 223.99L266.153 244.473L262.612 248.539L240.414 228.063L243.955 223.99Z" fill="url(#paint41_radial_1433_973)" fill-opacity="0.18"/>
<path d="M159.624 224.136L194.711 243.706L192.181 248.505L157.093 228.935L159.624 224.136Z" fill="url(#paint42_radial_1433_973)" fill-opacity="0.18"/>
<path d="M73.8956 224.295L115.422 243.408L113.257 248.394L71.7313 229.281L73.8956 224.295Z" fill="url(#paint43_radial_1433_973)" fill-opacity="0.18"/>
<path d="M2.75873 224.481L50.7297 243.146L48.8489 248.256L0.87793 229.592L2.75873 224.481Z" fill="url(#paint44_radial_1433_973)" fill-opacity="0.18"/>
<path d="M243.664 303.661L265.869 319.082L262.896 323.604L240.698 308.183L243.664 303.661Z" fill="url(#paint45_radial_1433_973)" fill-opacity="0.18"/>
<path d="M159.361 303.771L194.449 318.515L192.443 323.57L157.355 308.833L159.361 303.771Z" fill="url(#paint46_radial_1433_973)" fill-opacity="0.18"/>
<path d="M73.6606 303.903L115.186 318.3L113.492 323.48L71.9662 309.082L73.6606 303.903Z" fill="url(#paint47_radial_1433_973)" fill-opacity="0.18"/>
<path d="M2.54431 304.055L50.5153 318.113L49.063 323.362L1.09235 309.31L2.54431 304.055Z" fill="url(#paint48_radial_1433_973)" fill-opacity="0.18"/>
<path d="M243.049 384.742L265.247 392.611L263.518 397.77L241.32 389.9L243.049 384.742Z" fill="url(#paint49_radial_1433_973)" fill-opacity="0.18"/>
<path d="M158.905 384.838L193.985 392.362L192.9 397.708L157.819 390.191L158.905 384.838Z" fill="url(#paint50_radial_1433_973)" fill-opacity="0.18"/>
<path d="M73.2662 384.921L114.792 392.265L113.893 397.652L72.3674 390.301L73.2662 384.921Z" fill="url(#paint51_radial_1433_973)" fill-opacity="0.18"/>
<path d="M2.19855 385.004L50.1695 392.182L49.4088 397.583L1.43811 390.412L2.19855 385.004Z" fill="url(#paint52_radial_1433_973)" fill-opacity="0.18"/>
<path d="M242.184 472.33H264.382V466.867H242.184V472.33Z" fill="url(#paint53_radial_1433_973)" fill-opacity="0.18"/>
<path d="M158.358 472.33H193.446V466.867H158.358V472.33Z" fill="url(#paint54_radial_1433_973)" fill-opacity="0.18"/>
<path d="M72.9276 464.993L114.46 466.874L114.225 472.33L72.6993 470.456L72.9276 464.993Z" fill="url(#paint55_radial_1433_973)" fill-opacity="0.18"/>
<path d="M1.81836 470.435H49.7893V464.972H1.81836V470.435Z" fill="url(#paint56_radial_1433_973)" fill-opacity="0.18"/>
<path d="M263.518 538.335L265.247 543.494L243.049 551.364L241.32 546.205L263.518 538.335Z" fill="url(#paint57_radial_1433_973)" fill-opacity="0.18"/>
<path d="M192.9 538.398L193.985 543.743L158.905 551.26L157.819 545.915L192.9 538.398Z" fill="url(#paint58_radial_1433_973)" fill-opacity="0.18"/>
<path d="M113.893 538.453L114.792 543.84L73.2662 551.184L72.3674 545.804L113.893 538.453Z" fill="url(#paint59_radial_1433_973)" fill-opacity="0.18"/>
<path d="M49.4088 538.522L50.1695 543.923L2.19855 551.101L1.43811 545.693L49.4088 538.522Z" fill="url(#paint60_radial_1433_973)" fill-opacity="0.18"/>
<defs>
<radialGradient id="paint0_radial_1433_973" cx="0" cy="0" r="1" gradientUnits="userSpaceOnUse" gradientTransform="translate(356.5 198) rotate(-177.898) scale(967.651 746.655)">
<stop stop-color="white"/>
<stop offset="0.323969" stop-color="white" stop-opacity="0"/>
</radialGradient>
<radialGradient id="paint1_radial_1433_973" cx="0" cy="0" r="1" gradientUnits="userSpaceOnUse" gradientTransform="translate(356.5 198) rotate(-177.898) scale(967.651 746.655)">
<stop stop-color="white"/>
<stop offset="0.323969" stop-color="white" stop-opacity="0"/>
</radialGradient>
<radialGradient id="paint2_radial_1433_973" cx="0" cy="0" r="1" gradientUnits="userSpaceOnUse" gradientTransform="translate(356.5 198) rotate(-177.898) scale(967.651 746.655)">
<stop stop-color="white"/>
<stop offset="0.323969" stop-color="white" stop-opacity="0"/>
</radialGradient>
<radialGradient id="paint3_radial_1433_973" cx="0" cy="0" r="1" gradientUnits="userSpaceOnUse" gradientTransform="translate(356.5 198) rotate(-177.898) scale(967.651 746.655)">
<stop stop-color="white"/>
<stop offset="0.323969" stop-color="white" stop-opacity="0"/>
</radialGradient>
<radialGradient id="paint4_radial_1433_973" cx="0" cy="0" r="1" gradientUnits="userSpaceOnUse" gradientTransform="translate(356.5 198) rotate(-177.898) scale(967.651 746.655)">
<stop stop-color="white"/>
<stop offset="0.323969" stop-color="white" stop-opacity="0"/>
</radialGradient>
<radialGradient id="paint5_radial_1433_973" cx="0" cy="0" r="1" gradientUnits="userSpaceOnUse" gradientTransform="translate(356.5 198) rotate(-177.898) scale(967.651 746.655)">
<stop stop-color="white"/>
<stop offset="0.323969" stop-color="white" stop-opacity="0"/>
</radialGradient>
<radialGradient id="paint6_radial_1433_973" cx="0" cy="0" r="1" gradientUnits="userSpaceOnUse" gradientTransform="translate(356.5 198) rotate(-177.898) scale(967.651 746.655)">
<stop stop-color="white"/>
<stop offset="0.323969" stop-color="white" stop-opacity="0"/>
</radialGradient>
<radialGradient id="paint7_radial_1433_973" cx="0" cy="0" r="1" gradientUnits="userSpaceOnUse" gradientTransform="translate(356.5 198) rotate(-177.898) scale(967.651 746.655)">
<stop stop-color="white"/>
<stop offset="0.323969" stop-color="white" stop-opacity="0"/>
</radialGradient>
<radialGradient id="paint8_radial_1433_973" cx="0" cy="0" r="1" gradientUnits="userSpaceOnUse" gradientTransform="translate(356.5 198) rotate(-177.898) scale(967.651 746.655)">
<stop stop-color="white"/>
<stop offset="0.323969" stop-color="white" stop-opacity="0"/>
</radialGradient>
<radialGradient id="paint9_radial_1433_973" cx="0" cy="0" r="1" gradientUnits="userSpaceOnUse" gradientTransform="translate(356.5 198) rotate(-177.898) scale(967.651 746.655)">
<stop stop-color="white"/>
<stop offset="0.323969" stop-color="white" stop-opacity="0"/>
</radialGradient>
<radialGradient id="paint10_radial_1433_973" cx="0" cy="0" r="1" gradientUnits="userSpaceOnUse" gradientTransform="translate(356.5 198) rotate(-177.898) scale(967.651 746.655)">
<stop stop-color="white"/>
<stop offset="0.323969" stop-color="white" stop-opacity="0"/>
</radialGradient>
<radialGradient id="paint11_radial_1433_973" cx="0" cy="0" r="1" gradientUnits="userSpaceOnUse" gradientTransform="translate(356.5 198) rotate(-177.898) scale(967.651 746.655)">
<stop stop-color="white"/>
<stop offset="0.323969" stop-color="white" stop-opacity="0"/>
</radialGradient>
<radialGradient id="paint12_radial_1433_973" cx="0" cy="0" r="1" gradientUnits="userSpaceOnUse" gradientTransform="translate(356.5 198) rotate(-177.898) scale(967.651 746.655)">
<stop stop-color="white"/>
<stop offset="0.323969" stop-color="white" stop-opacity="0"/>
</radialGradient>
<radialGradient id="paint13_radial_1433_973" cx="0" cy="0" r="1" gradientUnits="userSpaceOnUse" gradientTransform="translate(356.5 198) rotate(-177.898) scale(967.651 746.655)">
<stop stop-color="white"/>
<stop offset="0.323969" stop-color="white" stop-opacity="0"/>
</radialGradient>
<radialGradient id="paint14_radial_1433_973" cx="0" cy="0" r="1" gradientUnits="userSpaceOnUse" gradientTransform="translate(356.5 198) rotate(-177.898) scale(967.651 746.655)">
<stop stop-color="white"/>
<stop offset="0.323969" stop-color="white" stop-opacity="0"/>
</radialGradient>
<radialGradient id="paint15_radial_1433_973" cx="0" cy="0" r="1" gradientUnits="userSpaceOnUse" gradientTransform="translate(356.5 198) rotate(-177.898) scale(967.651 746.655)">
<stop stop-color="white"/>
<stop offset="0.323969" stop-color="white" stop-opacity="0"/>
</radialGradient>
<radialGradient id="paint16_radial_1433_973" cx="0" cy="0" r="1" gradientUnits="userSpaceOnUse" gradientTransform="translate(356.5 198) rotate(-177.898) scale(967.651 746.655)">
<stop stop-color="white"/>
<stop offset="0.323969" stop-color="white" stop-opacity="0"/>
</radialGradient>
<radialGradient id="paint17_radial_1433_973" cx="0" cy="0" r="1" gradientUnits="userSpaceOnUse" gradientTransform="translate(356.5 198) rotate(-177.898) scale(967.651 746.655)">
<stop stop-color="white"/>
<stop offset="0.323969" stop-color="white" stop-opacity="0"/>
</radialGradient>
<radialGradient id="paint18_radial_1433_973" cx="0" cy="0" r="1" gradientUnits="userSpaceOnUse" gradientTransform="translate(356.5 198) rotate(-177.898) scale(967.651 746.655)">
<stop stop-color="white"/>
<stop offset="0.323969" stop-color="white" stop-opacity="0"/>
</radialGradient>
<radialGradient id="paint19_radial_1433_973" cx="0" cy="0" r="1" gradientUnits="userSpaceOnUse" gradientTransform="translate(356.5 198) rotate(-177.898) scale(967.651 746.655)">
<stop stop-color="white"/>
<stop offset="0.323969" stop-color="white" stop-opacity="0"/>
</radialGradient>
<radialGradient id="paint20_radial_1433_973" cx="0" cy="0" r="1" gradientUnits="userSpaceOnUse" gradientTransform="translate(356.5 198) rotate(-177.898) scale(967.651 746.655)">
<stop stop-color="white"/>
<stop offset="0.323969" stop-color="white" stop-opacity="0"/>
</radialGradient>
<radialGradient id="paint21_radial_1433_973" cx="0" cy="0" r="1" gradientUnits="userSpaceOnUse" gradientTransform="translate(356.5 198) rotate(-177.898) scale(967.651 746.655)">
<stop stop-color="white"/>
<stop offset="0.323969" stop-color="white" stop-opacity="0"/>
</radialGradient>
<radialGradient id="paint22_radial_1433_973" cx="0" cy="0" r="1" gradientUnits="userSpaceOnUse" gradientTransform="translate(356.5 198) rotate(-177.898) scale(967.651 746.655)">
<stop stop-color="white"/>
<stop offset="0.323969" stop-color="white" stop-opacity="0"/>
</radialGradient>
<radialGradient id="paint23_radial_1433_973" cx="0" cy="0" r="1" gradientUnits="userSpaceOnUse" gradientTransform="translate(356.5 198) rotate(-177.898) scale(967.651 746.655)">
<stop stop-color="white"/>
<stop offset="0.323969" stop-color="white" stop-opacity="0"/>
</radialGradient>
<radialGradient id="paint24_radial_1433_973" cx="0" cy="0" r="1" gradientUnits="userSpaceOnUse" gradientTransform="translate(356.5 198) rotate(-177.898) scale(967.651 746.655)">
<stop stop-color="white"/>
<stop offset="0.323969" stop-color="white" stop-opacity="0"/>
</radialGradient>
<radialGradient id="paint25_radial_1433_973" cx="0" cy="0" r="1" gradientUnits="userSpaceOnUse" gradientTransform="translate(356.5 198) rotate(-177.898) scale(967.651 746.655)">
<stop stop-color="white"/>
<stop offset="0.323969" stop-color="white" stop-opacity="0"/>
</radialGradient>
<radialGradient id="paint26_radial_1433_973" cx="0" cy="0" r="1" gradientUnits="userSpaceOnUse" gradientTransform="translate(356.5 198) rotate(-177.898) scale(967.651 746.655)">
<stop stop-color="white"/>
<stop offset="0.323969" stop-color="white" stop-opacity="0"/>
</radialGradient>
<radialGradient id="paint27_radial_1433_973" cx="0" cy="0" r="1" gradientUnits="userSpaceOnUse" gradientTransform="translate(356.5 198) rotate(-177.898) scale(967.651 746.655)">
<stop stop-color="white"/>
<stop offset="0.323969" stop-color="white" stop-opacity="0"/>
</radialGradient>
<radialGradient id="paint28_radial_1433_973" cx="0" cy="0" r="1" gradientUnits="userSpaceOnUse" gradientTransform="translate(356.5 198) rotate(-177.898) scale(967.651 746.655)">
<stop stop-color="white"/>
<stop offset="0.323969" stop-color="white" stop-opacity="0"/>
</radialGradient>
<radialGradient id="paint29_radial_1433_973" cx="0" cy="0" r="1" gradientUnits="userSpaceOnUse" gradientTransform="translate(356.5 198) rotate(-177.898) scale(967.651 746.655)">
<stop stop-color="white"/>
<stop offset="0.323969" stop-color="white" stop-opacity="0"/>
</radialGradient>
<radialGradient id="paint30_radial_1433_973" cx="0" cy="0" r="1" gradientUnits="userSpaceOnUse" gradientTransform="translate(356.5 198) rotate(-177.898) scale(967.651 746.655)">
<stop stop-color="white"/>
<stop offset="0.323969" stop-color="white" stop-opacity="0"/>
</radialGradient>
<radialGradient id="paint31_radial_1433_973" cx="0" cy="0" r="1" gradientUnits="userSpaceOnUse" gradientTransform="translate(356.5 198) rotate(-177.898) scale(967.651 746.655)">
<stop stop-color="white"/>
<stop offset="0.323969" stop-color="white" stop-opacity="0"/>
</radialGradient>
<radialGradient id="paint32_radial_1433_973" cx="0" cy="0" r="1" gradientUnits="userSpaceOnUse" gradientTransform="translate(356.5 198) rotate(-177.898) scale(967.651 746.655)">
<stop stop-color="white"/>
<stop offset="0.323969" stop-color="white" stop-opacity="0"/>
</radialGradient>
<radialGradient id="paint33_radial_1433_973" cx="0" cy="0" r="1" gradientUnits="userSpaceOnUse" gradientTransform="translate(356.5 198) rotate(-177.898) scale(967.651 746.655)">
<stop stop-color="white"/>
<stop offset="0.323969" stop-color="white" stop-opacity="0"/>
</radialGradient>
<radialGradient id="paint34_radial_1433_973" cx="0" cy="0" r="1" gradientUnits="userSpaceOnUse" gradientTransform="translate(356.5 198) rotate(-177.898) scale(967.651 746.655)">
<stop stop-color="white"/>
<stop offset="0.323969" stop-color="white" stop-opacity="0"/>
</radialGradient>
<radialGradient id="paint35_radial_1433_973" cx="0" cy="0" r="1" gradientUnits="userSpaceOnUse" gradientTransform="translate(356.5 198) rotate(-177.898) scale(967.651 746.655)">
<stop stop-color="white"/>
<stop offset="0.323969" stop-color="white" stop-opacity="0"/>
</radialGradient>
<radialGradient id="paint36_radial_1433_973" cx="0" cy="0" r="1" gradientUnits="userSpaceOnUse" gradientTransform="translate(356.5 198) rotate(-177.898) scale(967.651 746.655)">
<stop stop-color="white"/>
<stop offset="0.323969" stop-color="white" stop-opacity="0"/>
</radialGradient>
<radialGradient id="paint37_radial_1433_973" cx="0" cy="0" r="1" gradientUnits="userSpaceOnUse" gradientTransform="translate(356.5 198) rotate(-177.898) scale(967.651 746.655)">
<stop stop-color="white"/>
<stop offset="0.323969" stop-color="white" stop-opacity="0"/>
</radialGradient>
<radialGradient id="paint38_radial_1433_973" cx="0" cy="0" r="1" gradientUnits="userSpaceOnUse" gradientTransform="translate(356.5 198) rotate(-177.898) scale(967.651 746.655)">
<stop stop-color="white"/>
<stop offset="0.323969" stop-color="white" stop-opacity="0"/>
</radialGradient>
<radialGradient id="paint39_radial_1433_973" cx="0" cy="0" r="1" gradientUnits="userSpaceOnUse" gradientTransform="translate(356.5 198) rotate(-177.898) scale(967.651 746.655)">
<stop stop-color="white"/>
<stop offset="0.323969" stop-color="white" stop-opacity="0"/>
</radialGradient>
<radialGradient id="paint40_radial_1433_973" cx="0" cy="0" r="1" gradientUnits="userSpaceOnUse" gradientTransform="translate(356.5 198) rotate(-177.898) scale(967.651 746.655)">
<stop stop-color="white"/>
<stop offset="0.323969" stop-color="white" stop-opacity="0"/>
</radialGradient>
<radialGradient id="paint41_radial_1433_973" cx="0" cy="0" r="1" gradientUnits="userSpaceOnUse" gradientTransform="translate(356.5 198) rotate(-177.898) scale(967.651 746.655)">
<stop stop-color="white"/>
<stop offset="0.323969" stop-color="white" stop-opacity="0"/>
</radialGradient>
<radialGradient id="paint42_radial_1433_973" cx="0" cy="0" r="1" gradientUnits="userSpaceOnUse" gradientTransform="translate(356.5 198) rotate(-177.898) scale(967.651 746.655)">
<stop stop-color="white"/>
<stop offset="0.323969" stop-color="white" stop-opacity="0"/>
</radialGradient>
<radialGradient id="paint43_radial_1433_973" cx="0" cy="0" r="1" gradientUnits="userSpaceOnUse" gradientTransform="translate(356.5 198) rotate(-177.898) scale(967.651 746.655)">
<stop stop-color="white"/>
<stop offset="0.323969" stop-color="white" stop-opacity="0"/>
</radialGradient>
<radialGradient id="paint44_radial_1433_973" cx="0" cy="0" r="1" gradientUnits="userSpaceOnUse" gradientTransform="translate(356.5 198) rotate(-177.898) scale(967.651 746.655)">
<stop stop-color="white"/>
<stop offset="0.323969" stop-color="white" stop-opacity="0"/>
</radialGradient>
<radialGradient id="paint45_radial_1433_973" cx="0" cy="0" r="1" gradientUnits="userSpaceOnUse" gradientTransform="translate(356.5 198) rotate(-177.898) scale(967.651 746.655)">
<stop stop-color="white"/>
<stop offset="0.323969" stop-color="white" stop-opacity="0"/>
</radialGradient>
<radialGradient id="paint46_radial_1433_973" cx="0" cy="0" r="1" gradientUnits="userSpaceOnUse" gradientTransform="translate(356.5 198) rotate(-177.898) scale(967.651 746.655)">
<stop stop-color="white"/>
<stop offset="0.323969" stop-color="white" stop-opacity="0"/>
</radialGradient>
<radialGradient id="paint47_radial_1433_973" cx="0" cy="0" r="1" gradientUnits="userSpaceOnUse" gradientTransform="translate(356.5 198) rotate(-177.898) scale(967.651 746.655)">
<stop stop-color="white"/>
<stop offset="0.323969" stop-color="white" stop-opacity="0"/>
</radialGradient>
<radialGradient id="paint48_radial_1433_973" cx="0" cy="0" r="1" gradientUnits="userSpaceOnUse" gradientTransform="translate(356.5 198) rotate(-177.898) scale(967.651 746.655)">
<stop stop-color="white"/>
<stop offset="0.323969" stop-color="white" stop-opacity="0"/>
</radialGradient>
<radialGradient id="paint49_radial_1433_973" cx="0" cy="0" r="1" gradientUnits="userSpaceOnUse" gradientTransform="translate(356.5 198) rotate(-177.898) scale(967.651 746.655)">
<stop stop-color="white"/>
<stop offset="0.323969" stop-color="white" stop-opacity="0"/>
</radialGradient>
<radialGradient id="paint50_radial_1433_973" cx="0" cy="0" r="1" gradientUnits="userSpaceOnUse" gradientTransform="translate(356.5 198) rotate(-177.898) scale(967.651 746.655)">
<stop stop-color="white"/>
<stop offset="0.323969" stop-color="white" stop-opacity="0"/>
</radialGradient>
<radialGradient id="paint51_radial_1433_973" cx="0" cy="0" r="1" gradientUnits="userSpaceOnUse" gradientTransform="translate(356.5 198) rotate(-177.898) scale(967.651 746.655)">
<stop stop-color="white"/>
<stop offset="0.323969" stop-color="white" stop-opacity="0"/>
</radialGradient>
<radialGradient id="paint52_radial_1433_973" cx="0" cy="0" r="1" gradientUnits="userSpaceOnUse" gradientTransform="translate(356.5 198) rotate(-177.898) scale(967.651 746.655)">
<stop stop-color="white"/>
<stop offset="0.323969" stop-color="white" stop-opacity="0"/>
</radialGradient>
<radialGradient id="paint53_radial_1433_973" cx="0" cy="0" r="1" gradientUnits="userSpaceOnUse" gradientTransform="translate(356.5 198) rotate(-177.898) scale(967.651 746.655)">
<stop stop-color="white"/>
<stop offset="0.323969" stop-color="white" stop-opacity="0"/>
</radialGradient>
<radialGradient id="paint54_radial_1433_973" cx="0" cy="0" r="1" gradientUnits="userSpaceOnUse" gradientTransform="translate(356.5 198) rotate(-177.898) scale(967.651 746.655)">
<stop stop-color="white"/>
<stop offset="0.323969" stop-color="white" stop-opacity="0"/>
</radialGradient>
<radialGradient id="paint55_radial_1433_973" cx="0" cy="0" r="1" gradientUnits="userSpaceOnUse" gradientTransform="translate(356.5 198) rotate(-177.898) scale(967.651 746.655)">
<stop stop-color="white"/>
<stop offset="0.323969" stop-color="white" stop-opacity="0"/>
</radialGradient>
<radialGradient id="paint56_radial_1433_973" cx="0" cy="0" r="1" gradientUnits="userSpaceOnUse" gradientTransform="translate(356.5 198) rotate(-177.898) scale(967.651 746.655)">
<stop stop-color="white"/>
<stop offset="0.323969" stop-color="white" stop-opacity="0"/>
</radialGradient>
<radialGradient id="paint57_radial_1433_973" cx="0" cy="0" r="1" gradientUnits="userSpaceOnUse" gradientTransform="translate(356.5 198) rotate(-177.898) scale(967.651 746.655)">
<stop stop-color="white"/>
<stop offset="0.323969" stop-color="white" stop-opacity="0"/>
</radialGradient>
<radialGradient id="paint58_radial_1433_973" cx="0" cy="0" r="1" gradientUnits="userSpaceOnUse" gradientTransform="translate(356.5 198) rotate(-177.898) scale(967.651 746.655)">
<stop stop-color="white"/>
<stop offset="0.323969" stop-color="white" stop-opacity="0"/>
</radialGradient>
<radialGradient id="paint59_radial_1433_973" cx="0" cy="0" r="1" gradientUnits="userSpaceOnUse" gradientTransform="translate(356.5 198) rotate(-177.898) scale(967.651 746.655)">
<stop stop-color="white"/>
<stop offset="0.323969" stop-color="white" stop-opacity="0"/>
</radialGradient>
<radialGradient id="paint60_radial_1433_973" cx="0" cy="0" r="1" gradientUnits="userSpaceOnUse" gradientTransform="translate(356.5 198) rotate(-177.898) scale(967.651 746.655)">
<stop stop-color="white"/>
<stop offset="0.323969" stop-color="white" stop-opacity="0"/>
</radialGradient>
</defs>
</svg>
