<svg width="19" height="23" viewBox="0 0 19 23" fill="none" xmlns="http://www.w3.org/2000/svg">
<path d="M2.37822 9.1537L5.82312 4.49274C8.0499 1.47993 9.1633 -0.0264736 10.2021 0.291866C11.2409 0.610196 11.2409 2.4578 11.2409 6.15301V6.50142C11.2409 7.8342 11.2409 8.5006 11.6667 8.9186L11.6892 8.9402C12.1243 9.3494 12.8179 9.3494 14.205 9.3494C16.7013 9.3494 17.9494 9.3494 18.3712 10.1065C18.3782 10.119 18.385 10.1316 18.3916 10.1444C18.7898 10.9132 18.0671 11.8909 16.6217 13.8464L13.1768 18.5072C10.95 21.5201 9.8366 23.0265 8.7978 22.7081C7.759 22.3898 7.7591 20.5422 7.7591 16.8469V16.4987C7.7591 15.1659 7.7592 14.4995 7.3333 14.0815L7.3108 14.0598C6.8757 13.6506 6.1821 13.6506 4.79497 13.6506C2.29874 13.6506 1.05063 13.6506 0.62881 12.8936C0.62182 12.881 0.61504 12.8684 0.60844 12.8557C0.21025 12.0869 0.9329 11.1091 2.37822 9.1537Z" fill="white"/>
</svg>
