<svg width="33" height="29" viewBox="0 0 33 29" fill="none" xmlns="http://www.w3.org/2000/svg">
<path d="M11.4859 26.2056L8.78185 28.9096L0.602051 20.7298L3.26075 18.0711C5.70455 15.6273 9.00815 15.6273 11.452 18.0711C13.8844 20.5035 13.907 23.7845 11.4859 26.2056ZM4.19985 19.1685L2.72905 20.6393L8.86105 26.7713L10.3772 25.2553C12.1987 23.4338 12.176 21.1032 10.298 19.2251C8.39725 17.3244 6.06655 17.3018 4.19985 19.1685ZM14.1297 12.4065L15.1026 13.3795L14.6275 13.8547C13.6206 14.8616 13.6092 16.0948 14.6726 17.1583L17.603 20.0886L16.5394 21.152L11.0184 15.6309L12.014 14.6353L12.919 15.4047C12.5683 14.6014 12.7381 13.6624 13.4961 12.9043C13.6884 12.712 13.8695 12.5762 14.1297 12.4065ZM22.0112 15.9519C20.8232 17.1398 19.4543 17.1738 18.4474 16.1668C17.4291 15.1486 17.5536 13.757 18.7528 12.3541L20.3593 10.4761L20.201 10.3177C19.2733 9.38992 18.3908 9.61622 17.6441 10.3629C16.7503 11.2567 16.6372 12.1618 17.3047 12.8293L16.3769 13.757C15.2229 12.603 15.4152 10.8947 16.8407 9.46912C18.2097 8.10022 19.8616 7.89652 21.355 9.38992L24.8283 12.8632L23.9232 13.7683L22.9162 12.9877C23.2669 13.9041 22.905 15.0581 22.0112 15.9519ZM21.4907 14.8205C22.4976 13.8136 22.4523 12.5465 21.4115 11.5056L21.1174 11.2114L19.8162 12.7388C18.9677 13.7683 18.9451 14.515 19.4881 15.0581C20.0764 15.6464 20.8005 15.5107 21.4907 14.8205ZM22.8164 9.05982C21.2551 7.49852 21.0401 5.26972 22.6467 3.66322C23.5405 2.76942 24.638 2.48652 25.6789 2.82602L24.819 1.80772L25.7694 0.857422L31.0755 6.16352C32.8178 7.90582 32.8518 10.0894 31.1547 11.7864C29.65 13.2911 27.7718 13.4722 26.1652 12.2729L27.2287 11.2094C28.1791 11.8882 29.2653 11.7525 30.193 10.8247C31.2339 9.78392 31.2339 8.42622 30.1817 7.37412L29.0729 6.26532C29.3557 7.27222 29.0164 8.38102 28.1452 9.25212C26.5726 10.8247 24.3664 10.6098 22.8164 9.05982ZM23.8573 7.97372C24.8981 9.01462 26.3576 9.18432 27.3984 8.14342C28.4732 7.06862 28.3602 5.64312 27.2741 4.55692C26.2106 3.49352 24.8077 3.35772 23.7216 4.44382C22.6581 5.50732 22.839 6.95552 23.8573 7.97372Z" fill="white"/>
</svg>
