<svg width="17" height="17" viewBox="0 0 17 17" fill="none" xmlns="http://www.w3.org/2000/svg">
<path fill-rule="evenodd" clip-rule="evenodd" d="M5.02982 15.527C3.44259 16.2197 1.81775 16.4609 0 16.4609V13.2293C1.41381 13.2293 2.54045 13.0157 3.7108 12.5049C5.00985 11.9379 6.14903 11.0593 7.02742 9.94687C7.90581 8.83444 8.4963 7.52256 8.74657 6.12743C8.85258 5.53645 8.89617 4.93827 8.87799 4.34254H0V0.707031H11.2489C11.7291 0.707031 12.1183 1.09628 12.1183 1.57643V3.40122C12.1184 5.74774 11.8881 8.12415 10.7601 10.1818C10.3865 10.8633 9.98791 11.5184 9.61528 11.9903C8.40084 13.5283 6.82586 14.743 5.02982 15.527ZM13.3301 0.707075L13.3301 16.4609H16.9656V0.707075L13.3301 0.707075Z" fill="white"/>
</svg>
