<svg width="28" height="28" viewBox="0 0 28 28" fill="none" xmlns="http://www.w3.org/2000/svg">
<g style="mix-blend-mode:hard-light">
<g style="mix-blend-mode:darken">
<path d="M13.9301 4.57654C16.1103 4.57654 18.167 5.05716 20.0999 6.0184C22.0337 6.9788 23.6441 8.35899 24.9311 10.159C25.0436 10.3001 25.0779 10.4327 25.0341 10.5568C24.9903 10.6793 24.9146 10.7773 24.807 10.8508C24.6995 10.9243 24.5829 10.9564 24.4572 10.9471C24.3315 10.9378 24.2223 10.8635 24.1296 10.7241C22.9601 9.04402 21.4734 7.76181 19.6694 6.87744C17.8655 5.99306 15.9519 5.55088 13.9288 5.55088C11.9231 5.55088 10.0335 6.00151 8.26018 6.90278C6.48684 7.80404 5.01334 9.07781 3.83966 10.7241C3.73131 10.882 3.61055 10.9635 3.47738 10.9686C3.34339 10.9728 3.22222 10.9306 3.11387 10.8419C3.02454 10.7684 2.97078 10.6768 2.95258 10.567C2.93438 10.4572 2.96292 10.3423 3.03819 10.2223C4.33593 8.46035 5.9364 7.07889 7.83959 6.07795C9.74196 5.07701 11.7721 4.57654 13.9301 4.57654ZM13.9301 7.55402C16.6893 7.55402 19.0598 8.49287 21.0416 10.3706C23.0234 12.2483 24.0143 14.5737 24.0143 17.3467C24.0143 18.368 23.6615 19.2207 22.956 19.9048C22.2496 20.589 21.389 20.9311 20.3741 20.9311C19.3675 20.9311 18.4986 20.589 17.7675 19.9048C17.0363 19.2207 16.6707 18.368 16.6707 17.3467C16.6707 16.6178 16.406 15.9991 15.8767 15.4906C15.3465 14.9838 14.7133 14.7304 13.9772 14.7304C13.2287 14.7304 12.5848 14.9821 12.0455 15.4855C11.5062 15.9881 11.2366 16.6085 11.2366 17.3467C11.2366 19.4441 11.8466 21.1951 13.0666 22.5998C14.2874 24.0053 15.8386 24.9826 17.7203 25.5316C17.8675 25.5798 17.9701 25.66 18.028 25.7724C18.0859 25.8847 18.0942 26.0046 18.0528 26.1322C18.0115 26.2445 17.9445 26.3455 17.8518 26.435C17.7592 26.5245 17.6281 26.5482 17.4585 26.506C15.3717 25.9569 13.6538 24.8757 12.3048 23.2624C10.9558 21.6491 10.2817 19.6772 10.2825 17.3467C10.2825 16.3238 10.6464 15.4695 11.3743 14.7836C12.1021 14.0977 12.9706 13.7548 13.9797 13.7548C14.9888 13.7548 15.8481 14.0977 16.5578 14.7836C17.2675 15.4695 17.6231 16.3238 17.6248 17.3467C17.6248 18.085 17.8969 18.7058 18.4411 19.2092C18.9854 19.7127 19.6272 19.9644 20.3667 19.9644C21.1061 19.9644 21.7401 19.7106 22.2686 19.2029C22.7972 18.6953 23.061 18.0765 23.0602 17.3467C23.0602 14.8558 22.1628 12.7623 20.3679 11.0662C18.5747 9.36922 16.4325 8.52075 13.9412 8.52075C11.45 8.52075 9.31393 9.37218 7.53315 11.075C5.75237 12.7779 4.86156 14.8664 4.86074 17.3404C4.86074 17.8557 4.91905 18.4993 5.03567 19.2713C5.15229 20.0434 5.37892 20.9366 5.71556 21.9511C5.76105 22.0921 5.75981 22.2163 5.71184 22.3236C5.66221 22.4308 5.57123 22.5161 5.43889 22.5795C5.30655 22.6428 5.18166 22.645 5.06421 22.5858C4.94924 22.5267 4.86859 22.4304 4.82227 22.297C4.49639 21.4244 4.26232 20.5899 4.12005 19.7933C3.97779 18.9968 3.90666 18.1817 3.90666 17.348C3.90666 14.5741 4.89258 12.2487 6.86442 10.3719C8.83627 8.49499 11.1919 7.55613 13.9313 7.55529M13.9772 1.47364C15.2799 1.47364 16.552 1.6375 17.7935 1.96524C19.0342 2.29212 20.2347 2.76176 21.3952 3.37415C21.5648 3.46369 21.6611 3.57012 21.6843 3.69344C21.7074 3.81676 21.6963 3.93628 21.6508 4.052C21.6053 4.16772 21.5217 4.25135 21.4002 4.30287C21.2794 4.35524 21.1553 4.34468 21.028 4.2712C19.9477 3.65205 18.8117 3.19339 17.6198 2.89522C16.4288 2.5979 15.2108 2.44923 13.966 2.44923C12.7419 2.44923 11.543 2.60761 10.3693 2.92436C9.19565 3.24196 8.05754 3.6909 6.95499 4.2712C6.8698 4.32779 6.76434 4.33792 6.63862 4.3016C6.5129 4.26528 6.4244 4.18673 6.37312 4.06594C6.32184 3.94515 6.30529 3.82859 6.32349 3.71624C6.34086 3.6039 6.40827 3.51099 6.52572 3.4375C7.66797 2.78795 8.86977 2.29804 10.1311 1.96777C11.3925 1.6375 12.6745 1.47279 13.9772 1.47364ZM13.9784 10.6531C15.8692 10.6531 17.4875 11.2968 18.8332 12.584C20.1789 13.8713 20.8518 15.4593 20.8518 17.348C20.8518 17.4941 20.8079 17.612 20.7203 17.7015C20.6326 17.791 20.5168 17.8358 20.3729 17.8358C20.2563 17.8358 20.1475 17.791 20.0466 17.7015C19.9473 17.612 19.8977 17.4941 19.8977 17.348C19.8977 15.7313 19.3117 14.3735 18.1397 13.2746C16.9676 12.1756 15.5802 11.6266 13.9772 11.6275C12.3743 11.6283 10.9892 12.1773 9.82219 13.2746C8.65513 14.3718 8.07201 15.7288 8.07284 17.3455C8.07284 19.0906 8.37019 20.5637 8.96488 21.7648C9.55958 22.9659 10.4152 24.1831 11.5318 25.4163C11.6559 25.5456 11.7059 25.6744 11.682 25.8028C11.658 25.9312 11.6079 26.0342 11.5318 26.1119C11.4392 26.2065 11.3304 26.258 11.2055 26.2665C11.0806 26.2749 10.9636 26.2234 10.8544 26.1119C9.68241 24.8356 8.76638 23.5124 8.10634 22.1424C7.4463 20.7723 7.11669 19.1738 7.11752 17.3467C7.11752 15.4589 7.78831 13.8709 9.12989 12.5828C10.4715 11.2947 12.0877 10.6514 13.9784 10.6531ZM13.9164 16.8615C14.0587 16.8615 14.1745 16.91 14.2638 17.0072C14.3548 17.1043 14.4003 17.2179 14.4003 17.348C14.4003 18.9816 14.9702 20.3213 16.1099 21.367C17.2497 22.4127 18.5884 22.9355 20.126 22.9355C20.3295 22.9355 20.5449 22.925 20.7724 22.9038C20.9998 22.8827 21.2298 22.8511 21.4622 22.8088C21.5846 22.7826 21.6892 22.8008 21.7761 22.8633C21.8629 22.9258 21.927 23.0293 21.9684 23.1737C22.0097 23.303 21.9866 23.4157 21.8989 23.512C21.8112 23.6083 21.7004 23.6776 21.5664 23.7198C21.3381 23.7764 21.0921 23.8224 20.8282 23.8579C20.5652 23.8917 20.3311 23.9086 20.126 23.9086C18.3328 23.9086 16.7712 23.2869 15.4412 22.0436C14.1104 20.8002 13.445 19.235 13.445 17.348C13.445 17.2179 13.4884 17.1039 13.5752 17.0059C13.6621 16.9096 13.7762 16.8615 13.9177 16.8615" fill="white"/>
<path d="M13.9301 7.55402C16.6893 7.55402 19.0598 8.49287 21.0416 10.3706C23.0234 12.2483 24.0143 14.5737 24.0143 17.3467C24.0143 18.368 23.6615 19.2207 22.956 19.9048C22.2496 20.589 21.389 20.9311 20.3741 20.9311C19.3675 20.9311 18.4986 20.589 17.7675 19.9048C17.0363 19.2207 16.6707 18.368 16.6707 17.3467C16.6707 16.6178 16.406 15.9991 15.8767 15.4906C15.3465 14.9838 14.7133 14.7304 13.9772 14.7304C13.2287 14.7304 12.5848 14.9821 12.0455 15.4855C11.5062 15.9881 11.2366 16.6085 11.2366 17.3467C11.2366 19.4441 11.8466 21.1951 13.0666 22.5998C14.2874 24.0053 15.8386 24.9826 17.7203 25.5316C17.8675 25.5798 17.9701 25.66 18.028 25.7724C18.0859 25.8847 18.0942 26.0046 18.0528 26.1322C18.0115 26.2445 17.9445 26.3455 17.8518 26.435C17.7592 26.5245 17.6281 26.5482 17.4585 26.506C15.3717 25.9569 13.6538 24.8757 12.3048 23.2624C10.9558 21.6491 10.2817 19.6772 10.2825 17.3467C10.2825 16.3238 10.6464 15.4695 11.3743 14.7836C12.1021 14.0977 12.9706 13.7548 13.9797 13.7548C14.9888 13.7548 15.8481 14.0977 16.5578 14.7836C17.2675 15.4695 17.6231 16.3238 17.6248 17.3467C17.6248 18.085 17.8969 18.7058 18.4411 19.2092C18.9854 19.7127 19.6272 19.9644 20.3667 19.9644C21.1061 19.9644 21.7401 19.7106 22.2686 19.2029C22.7972 18.6953 23.061 18.0765 23.0602 17.3467C23.0602 14.8558 22.1628 12.7623 20.3679 11.0662C18.5747 9.36922 16.4325 8.52075 13.9412 8.52075C11.45 8.52075 9.31393 9.37218 7.53315 11.075C5.75237 12.7779 4.86156 14.8664 4.86074 17.3404C4.86074 17.8557 4.91905 18.4993 5.03567 19.2713C5.15229 20.0434 5.37892 20.9366 5.71556 21.9511C5.76105 22.0921 5.75981 22.2163 5.71184 22.3236C5.66221 22.4308 5.57123 22.5161 5.43889 22.5795C5.30655 22.6428 5.18166 22.645 5.06421 22.5858C4.94924 22.5267 4.86859 22.4304 4.82227 22.297C4.49639 21.4244 4.26232 20.5899 4.12005 19.7933C3.97779 18.9968 3.90666 18.1817 3.90666 17.348C3.90666 14.5741 4.89258 12.2487 6.86442 10.3719C8.83627 8.49499 11.1919 7.55613 13.9313 7.55529M13.9164 16.8615C14.0587 16.8615 14.1745 16.91 14.2638 17.0072C14.3548 17.1043 14.4003 17.2179 14.4003 17.348C14.4003 18.9816 14.9702 20.3213 16.1099 21.367C17.2497 22.4127 18.5884 22.9355 20.126 22.9355C20.3295 22.9355 20.5449 22.925 20.7724 22.9038C20.9998 22.8827 21.2298 22.8511 21.4622 22.8088C21.5846 22.7826 21.6892 22.8008 21.7761 22.8633C21.8629 22.9258 21.927 23.0293 21.9684 23.1737C22.0097 23.303 21.9866 23.4157 21.8989 23.512C21.8112 23.6083 21.7004 23.6776 21.5664 23.7198C21.3381 23.7764 21.0921 23.8224 20.8282 23.8579C20.5652 23.8917 20.3311 23.9086 20.126 23.9086C18.3328 23.9086 16.7712 23.2869 15.4412 22.0436C14.1104 20.8002 13.445 19.235 13.445 17.348C13.445 17.2179 13.4884 17.1039 13.5752 17.0059C13.6621 16.9096 13.7762 16.8615 13.9177 16.8615M13.9301 4.57654C16.1103 4.57654 18.167 5.05716 20.0999 6.0184C22.0337 6.9788 23.6441 8.35899 24.9311 10.159C25.0436 10.3001 25.0779 10.4327 25.0341 10.5568C24.9903 10.6793 24.9146 10.7773 24.807 10.8508C24.6995 10.9243 24.5829 10.9564 24.4572 10.9471C24.3315 10.9378 24.2223 10.8635 24.1296 10.7241C22.9601 9.04402 21.4734 7.76181 19.6694 6.87744C17.8655 5.99306 15.9519 5.55088 13.9288 5.55088C11.9231 5.55088 10.0335 6.00151 8.26018 6.90278C6.48684 7.80404 5.01334 9.07781 3.83966 10.7241C3.73131 10.882 3.61055 10.9635 3.47738 10.9686C3.34339 10.9728 3.22222 10.9306 3.11387 10.8419C3.02454 10.7684 2.97078 10.6768 2.95258 10.567C2.93438 10.4572 2.96292 10.3423 3.03819 10.2223C4.33593 8.46035 5.9364 7.07889 7.83959 6.07795C9.74196 5.07701 11.7721 4.57654 13.9301 4.57654ZM13.9772 1.47364C15.2799 1.47364 16.552 1.6375 17.7935 1.96524C19.0342 2.29212 20.2347 2.76176 21.3952 3.37415C21.5648 3.46369 21.6611 3.57012 21.6843 3.69344C21.7074 3.81676 21.6963 3.93628 21.6508 4.052C21.6053 4.16772 21.5217 4.25135 21.4002 4.30287C21.2794 4.35524 21.1553 4.34468 21.028 4.2712C19.9477 3.65205 18.8117 3.19339 17.6198 2.89522C16.4288 2.5979 15.2108 2.44923 13.966 2.44923C12.7419 2.44923 11.543 2.60761 10.3693 2.92436C9.19565 3.24196 8.05754 3.6909 6.95499 4.2712C6.8698 4.32779 6.76434 4.33792 6.63862 4.3016C6.5129 4.26528 6.4244 4.18673 6.37312 4.06594C6.32184 3.94515 6.30529 3.82859 6.32349 3.71624C6.34086 3.6039 6.40827 3.51099 6.52572 3.4375C7.66797 2.78795 8.86977 2.29804 10.1311 1.96777C11.3925 1.6375 12.6745 1.47279 13.9772 1.47364ZM13.9784 10.6531C15.8692 10.6531 17.4875 11.2968 18.8332 12.584C20.1789 13.8713 20.8518 15.4593 20.8518 17.348C20.8518 17.4941 20.8079 17.612 20.7203 17.7015C20.6326 17.791 20.5168 17.8358 20.3729 17.8358C20.2563 17.8358 20.1475 17.791 20.0466 17.7015C19.9473 17.612 19.8977 17.4941 19.8977 17.348C19.8977 15.7313 19.3117 14.3735 18.1397 13.2746C16.9676 12.1757 15.5802 11.6266 13.9772 11.6275C12.3743 11.6283 10.9892 12.1773 9.82219 13.2746C8.65513 14.3718 8.07201 15.7288 8.07284 17.3455C8.07284 19.0906 8.37019 20.5637 8.96488 21.7648C9.55958 22.9659 10.4152 24.1831 11.5318 25.4163C11.6559 25.5456 11.7059 25.6744 11.682 25.8028C11.658 25.9312 11.6079 26.0342 11.5318 26.1119C11.4392 26.2065 11.3304 26.258 11.2055 26.2665C11.0806 26.2749 10.9636 26.2234 10.8544 26.1119C9.68241 24.8356 8.76638 23.5124 8.10634 22.1424C7.4463 20.7723 7.11669 19.1738 7.11752 17.3467C7.11752 15.4589 7.78831 13.8709 9.12989 12.5828C10.4715 11.2947 12.0877 10.6514 13.9784 10.6531Z" stroke="white" stroke-width="0.5"/>
</g>
</g>
</svg>
