<svg width="22" height="22" viewBox="0 0 22 22" fill="none" xmlns="http://www.w3.org/2000/svg">
<path d="M18 18C18.3437 17.9498 18.6777 17.887 19 17.8125C19.5912 17.676 19.8868 17.6077 20.241 17.3251C20.443 17.1639 20.6952 16.8448 20.8059 16.6103C21 16.199 21 15.8002 21 15.0026V4.14011C21 3.14701 19.96 2.46492 19 2.68664C18.0803 2.89906 17.0659 3.01679 16 3.01679C14.0829 3.01679 12.3325 2.63598 11 2.00839C9.66746 1.38081 7.91707 1 6 1C4.93408 1 3.91969 1.11773 3 1.33014C2.4088 1.46669 2.11319 1.53497 1.75898 1.81759C1.55696 1.97878 1.30483 2.29786 1.19412 2.53242C1 2.94368 1 3.34249 1 4.14011V15.0026C1 15.9957 2.04003 16.6778 3 16.456C3.32232 16.3816 3.65627 16.3188 4 16.2686" stroke="#636363" stroke-width="1.5" stroke-linecap="round"/>
<path d="M13.5 9.5C13.5 8.11929 12.3807 7 11 7C9.61929 7 8.5 8.11929 8.5 9.5C8.5 10.8807 9.61929 12 11 12C12.3807 12 13.5 10.8807 13.5 9.5Z" stroke="#636363" stroke-width="1.5"/>
<path d="M4.5 8.5L4.5 8.49102" stroke="#636363" stroke-width="2" stroke-linecap="round" stroke-linejoin="round"/>
<path d="M17.5 10.5078L17.5 10.4988" stroke="#636363" stroke-width="2" stroke-linecap="round" stroke-linejoin="round"/>
<path d="M11 21V17M7 18L7 16M15 20V18" stroke="#636363" stroke-width="1.5" stroke-linecap="round"/>
</svg>
