<svg width="630" height="300" viewBox="0 0 630 300" fill="none" xmlns="http://www.w3.org/2000/svg">
<g clip-path="url(#clip0_214_10)">
<path d="M407.04 0C410.331 0 413 2.6686 413 5.96048C413 15.8462 413 15.789 414.853 20.2265C416.705 24.6641 420.22 28.1396 427.249 35.0907L488.974 96.1302C495.896 102.975 499.357 106.397 503.74 108.199C508.124 110 512.991 110 522.725 110H582C604.627 110 615.941 110 622.971 117.029C630 124.059 630 135.373 630 158V252C630 274.627 630 285.941 622.971 292.971C615.941 300 604.627 300 582 300H48C25.3726 300 14.0589 300 7.02944 292.971C0 285.941 0 274.627 0 252V48C0 25.3726 0 14.0589 7.02944 7.02944C14.0589 0 25.3726 0 48 0H407.04Z" fill="#C8C8C8" fill-opacity="0.12"/>
<path d="M503.55 108.661L503.74 108.199L503.55 108.661C508.025 110.5 512.985 110.5 522.589 110.5H522.725H582C593.328 110.5 601.773 110.501 608.268 111.374C614.748 112.245 619.211 113.976 622.617 117.383C626.024 120.789 627.755 125.252 628.626 131.732C629.499 138.227 629.5 146.672 629.5 158V252C629.5 263.328 629.499 271.773 628.626 278.268C627.755 284.748 626.024 289.211 622.617 292.617C619.211 296.024 614.748 297.755 608.268 298.626C601.773 299.499 593.328 299.5 582 299.5H48C36.6722 299.5 28.2266 299.499 21.7321 298.626C15.252 297.755 10.7893 296.024 7.38298 292.617C3.97666 289.211 2.24545 284.748 1.37422 278.268C0.501062 271.773 0.5 263.328 0.5 252V48C0.5 36.6722 0.501062 28.2266 1.37422 21.7321C2.24545 15.252 3.97666 10.7893 7.38299 7.38299C10.7893 3.97666 15.252 2.24545 21.7321 1.37422C28.2266 0.501062 36.6722 0.5 48 0.5H407.04C410.055 0.5 412.5 2.94474 412.5 5.96048V6.03021C412.5 10.9082 412.5 13.3928 412.736 15.2012C412.974 17.0237 413.452 18.1702 414.348 20.3139L414.392 20.4192C416.282 24.9484 419.862 28.4893 426.795 35.3447L426.897 35.4462L488.622 96.4857L488.716 96.5784C495.548 103.334 499.075 106.822 503.55 108.661Z" stroke="#C8C8C8" stroke-opacity="0.12"/>
</g>
<defs>
<clipPath id="clip0_214_10">
<rect width="630" height="300" fill="white"/>
</clipPath>
</defs>
</svg>
