<svg width="18" height="22" viewBox="0 0 18 22" fill="none" xmlns="http://www.w3.org/2000/svg">
<path d="M0.78307 1.82598L9 0L17.2169 1.82598C17.6745 1.92766 18 2.33347 18 2.80217V12.7889C18 14.795 16.9974 16.6684 15.3282 17.7812L9 22L2.6718 17.7812C1.00261 16.6684 0 14.795 0 12.7889V2.80217C0 2.33347 0.32553 1.92766 0.78307 1.82598ZM9 12.5L11.9389 14.0451L11.3776 10.7725L13.7553 8.45492L10.4695 7.97746L9 5L7.5305 7.97746L4.24472 8.45492L6.62236 10.7725L6.06107 14.0451L9 12.5Z" fill="url(#paint0_linear_229_10)"/>
<defs>
<linearGradient id="paint0_linear_229_10" x1="9" y1="0" x2="9" y2="22" gradientUnits="userSpaceOnUse">
<stop stop-color="#F8F8F8"/>
<stop offset="1" stop-color="#F8F8F8"/>
</linearGradient>
</defs>
</svg>
