<svg width="37" height="37" viewBox="0 0 37 37" fill="none" xmlns="http://www.w3.org/2000/svg">
<path d="M31.6611 27.5C32.785 27.5 33.679 26.7927 34.4817 25.8037C36.1249 23.7792 33.427 22.1613 32.398 21.3689C31.352 20.5634 30.1841 20.1071 29 20M27.5 17C29.5711 17 31.25 15.3211 31.25 13.25C31.25 11.1789 29.5711 9.5 27.5 9.5" stroke="white" stroke-width="1.5" stroke-linecap="round"/>
<path d="M5.33894 27.5C4.21498 27.5 3.321 26.7927 2.51832 25.8037C0.875133 23.7792 3.57301 22.1613 4.60197 21.3689C5.64796 20.5634 6.81587 20.1071 8 20M8.75 17C6.67893 17 5 15.3211 5 13.25C5 11.1789 6.67893 9.5 8.75 9.5" stroke="white" stroke-width="1.5" stroke-linecap="round"/>
<path d="M12.6257 23.1668C11.093 24.1145 7.07448 26.0496 9.52205 28.4711C10.7177 29.654 12.0493 30.5 13.7234 30.5H23.2766C24.9507 30.5 26.2823 29.654 27.478 28.4711C29.9255 26.0496 25.907 24.1145 24.3743 23.1668C20.7802 20.9444 16.2198 20.9444 12.6257 23.1668Z" stroke="white" stroke-width="1.5" stroke-linecap="round" stroke-linejoin="round"/>
<path d="M23.75 11.75C23.75 14.6495 21.3995 17 18.5 17C15.6005 17 13.25 14.6495 13.25 11.75C13.25 8.85051 15.6005 6.5 18.5 6.5C21.3995 6.5 23.75 8.85051 23.75 11.75Z" stroke="white" stroke-width="1.5"/>
</svg>
