<svg width="84" height="13" viewBox="0 0 84 13" fill="none" xmlns="http://www.w3.org/2000/svg">
<path d="M47.9093 2.66844H47.0536C46.5149 2.69026 46.0146 2.86484 45.5573 3.19944C45.0639 3.56071 44.7017 4.02624 44.4685 4.59603L44.3214 2.66844H43.4771V12.2918H44.4889V7.07401C44.4889 6.10173 44.713 5.30645 45.1589 4.68816C45.6049 4.06988 46.2387 3.74983 47.0559 3.74983H47.9115V2.66602L47.9093 2.66844Z" fill="white"/>
<path d="M41.62 2.86825H40.7799L40.6433 5.04399C40.3314 4.33734 39.8328 3.76551 39.1476 3.32618C38.4623 2.88684 37.7292 2.66602 36.9484 2.66602C36.1265 2.66602 35.3684 2.8822 34.6695 3.31456C33.9706 3.74691 33.4174 4.33269 33.0076 5.07189C32.5978 5.81108 32.3906 6.61304 32.3906 7.47776C32.3906 8.34248 32.5955 9.16303 33.0076 9.89525C33.4196 10.6275 33.9729 11.2109 34.6695 11.6433C35.3661 12.0756 36.1265 12.2918 36.9484 12.2918C37.7702 12.2918 38.583 12.0431 39.3047 11.5433C40.0286 11.0436 40.5272 10.402 40.8004 9.61631L41.6609 12.0919H42.7378L41.6222 8.89571V2.8636L41.62 2.86825ZM40.147 9.33737C39.7987 9.94174 39.3343 10.4229 38.7537 10.7762C38.139 11.1528 37.4811 11.3225 36.7822 11.2923C36.2312 11.2667 35.6871 11.097 35.2182 10.8041C34.6581 10.4555 34.2119 9.98358 33.8841 9.38851C33.5653 8.80971 33.406 8.17279 33.406 7.48008C33.406 6.78738 33.5653 6.16906 33.8841 5.58328C34.2142 4.97891 34.6604 4.50238 35.2273 4.1537C35.6985 3.86314 36.2449 3.69345 36.7958 3.67021C37.4902 3.64231 38.1436 3.81433 38.756 4.18625C39.3229 4.5326 39.7805 4.9975 40.1242 5.58328C40.4976 6.21787 40.6706 6.90593 40.6387 7.64745C40.6137 8.2402 40.4407 8.82365 40.147 9.33505V9.33737Z" fill="white"/>
<path d="M31.241 3.72827V2.66602H24.6713V3.7501H29.9157L24.2607 11.249V12.2918H31.6516V11.2077H25.586L31.241 3.72827Z" fill="white"/>
<path d="M22.0335 3.31471C21.3548 2.88225 20.619 2.66602 19.8261 2.66602C19.0332 2.66602 18.2798 2.88225 17.6012 3.31471C16.9225 3.74718 16.3844 4.33309 15.9868 5.07247C15.5915 5.81184 15.3916 6.61399 15.3916 7.47892C15.3916 8.34385 15.5893 9.146 15.9868 9.88537C16.3822 10.6247 16.9203 11.2107 17.6012 11.6431C18.282 12.0756 19.0222 12.2918 19.8261 12.2918C20.63 12.2918 21.3548 12.0756 22.0335 11.6431C22.7121 11.2107 23.2546 10.6247 23.6566 9.88537C24.0585 9.146 24.2606 8.34385 24.2606 7.47892C24.2606 6.61399 24.0585 5.81184 23.6566 5.07247C23.2546 4.33309 22.7121 3.74718 22.0335 3.31471ZM22.8176 9.38781C22.5101 9.96675 22.0906 10.4294 21.5612 10.7759C21.0319 11.1223 20.4543 11.2944 19.8261 11.2944C19.1979 11.2944 18.6181 11.1223 18.091 10.7759C17.5616 10.4294 17.1443 9.96675 16.8368 9.38781C16.5293 8.80886 16.3734 8.17179 16.3734 7.47892C16.3734 6.78605 16.5271 6.16758 16.8368 5.58166C17.1443 4.99574 17.5638 4.53073 18.091 4.18429C18.6203 3.83785 19.1979 3.6658 19.8261 3.6658C20.4543 3.6658 21.0341 3.84018 21.5612 4.18429C22.0906 4.53073 22.5079 4.99574 22.8176 5.58166C23.1251 6.16758 23.2788 6.8 23.2788 7.47892C23.2788 8.15784 23.1251 8.80654 22.8176 9.38781Z" fill="white"/>
<path d="M66.8381 4.18453C67.3517 3.8381 67.9134 3.66604 68.5275 3.66604C69.1416 3.66604 69.7273 3.8102 70.2081 4.09618C70.6889 4.38217 71.15 4.79138 71.5871 5.32382L72.3018 4.58445C71.2506 3.30566 69.9917 2.66626 68.5275 2.66626C67.7385 2.66626 67.0108 2.88249 66.3398 3.31496C65.6689 3.74742 65.14 4.33101 64.7532 5.06341C64.3642 5.79581 64.1719 6.60261 64.1719 7.47917C64.1719 8.35572 64.3664 9.14624 64.7532 9.88562C65.14 10.625 65.6689 11.2109 66.3398 11.6434C67.0086 12.0758 67.7385 12.2921 68.5275 12.2921C69.9786 12.2921 71.2375 11.6457 72.3018 10.3553L71.5871 9.61591C71.1479 10.1484 70.6867 10.5622 70.1972 10.8552C69.7098 11.1481 69.1525 11.2946 68.5253 11.2946C67.8981 11.2946 67.3495 11.1226 66.8359 10.7761C66.3224 10.4297 65.9137 9.96467 65.6055 9.37875C65.2996 8.79283 65.1444 8.16041 65.1444 7.48149C65.1444 6.80257 65.2974 6.15387 65.6055 5.57493C65.9137 4.99599 66.3224 4.5333 66.8359 4.18686L66.8381 4.18453Z" fill="white"/>
<path d="M81.3052 5.07271C80.9033 4.33334 80.361 3.74742 79.6824 3.31496C79.0039 2.88249 78.2683 2.66626 77.4756 2.66626C76.6829 2.66626 75.9298 2.88249 75.249 3.31496C74.5705 3.74742 74.0326 4.33334 73.6351 5.07271C73.2399 5.81209 73.04 6.61424 73.04 7.47917C73.04 8.34409 73.2377 9.14624 73.6351 9.88562C74.0326 10.625 74.5683 11.2109 75.249 11.6434C75.9276 12.0758 76.6698 12.2921 77.4756 12.2921C78.2815 12.2921 79.0039 12.0758 79.6824 11.6434C80.361 11.2109 80.9011 10.625 81.3052 9.88562C81.707 9.14624 81.909 8.34409 81.909 7.47917C81.909 6.61424 81.707 5.81209 81.3052 5.07271ZM80.4664 9.38805C80.1589 9.967 79.7395 10.4297 79.2125 10.7761C78.6833 11.1226 78.1058 11.2946 77.4778 11.2946C76.8498 11.2946 76.2701 11.1226 75.7431 10.7761C75.2139 10.4297 74.7967 9.967 74.4871 9.38805C74.1797 8.80911 74.026 8.17204 74.026 7.47917C74.026 6.78629 74.1797 6.16782 74.4871 5.5819C74.7945 4.99599 75.2139 4.53097 75.7431 4.18453C76.2723 3.8381 76.8498 3.66604 77.4778 3.66604C78.1058 3.66604 78.6855 3.84042 79.2125 4.18453C79.7417 4.53097 80.1589 4.99599 80.4664 5.5819C80.7738 6.16782 80.9297 6.80024 80.9297 7.47917C80.9297 8.15809 80.776 8.80678 80.4664 9.38805Z" fill="white"/>
<path d="M12.9384 2.66602L7.26318 10.1363L1.58794 2.66602H0.610352V12.2894H1.58794V4.39478L6.07127 10.2818C6.69675 11.1038 7.83836 11.1038 8.46384 10.2818L12.9362 4.40448V12.2918H13.9138V2.66844H12.9362L12.9384 2.66602Z" fill="white"/>
<path d="M49.6327 3.66842H53.0854V2.57391H49.6327V0.26001H48.6509V10.5391C48.6509 11.5063 49.3559 12.2923 50.2235 12.2923H53.0854V11.1978H51.5962H49.6327V3.66842Z" fill="white"/>
<path d="M82.6488 4.27056C83.0569 4.27056 83.3878 3.91143 83.3878 3.46841C83.3878 3.02539 83.0569 2.66626 82.6488 2.66626C82.2406 2.66626 81.9097 3.02539 81.9097 3.46841C81.9097 3.91143 82.2406 4.27056 82.6488 4.27056Z" fill="white"/>
<path d="M62.8662 9.83234C63.1712 9.25552 63.3568 8.64072 63.4298 7.98794H62.4397C62.3888 8.60511 62.1413 9.15345 61.8142 9.64956C61.77 9.71602 61.7103 9.76825 61.6639 9.83234L56.8791 3.72708H60.1434V2.66602H55.5487V3.72708L58.0969 6.96961H54.563V7.35653C54.563 8.2538 54.7619 9.07986 55.1619 9.83471C55.573 10.6133 56.1366 11.2257 56.8504 11.672C57.4869 12.0684 58.2162 12.2844 58.95 12.2915C59.7832 12.301 60.5478 12.0803 61.2462 11.6293C61.3589 11.5557 61.4628 11.4726 61.5689 11.3895L62.1192 12.0874H63.432L62.3137 10.6608C62.5192 10.4092 62.7093 10.1386 62.8684 9.83471L62.8662 9.83234ZM60.5876 10.8317C60.1014 11.1237 59.571 11.2708 59.0008 11.2708C58.4306 11.2708 57.9201 11.1237 57.425 10.8317C56.9322 10.5397 56.5233 10.1457 56.2006 9.64956C55.878 9.15345 55.6724 8.60037 55.584 7.98794H58.8925L60.9235 10.5729C60.8108 10.6584 60.707 10.7581 60.5854 10.8317H60.5876Z" fill="white"/>
</svg>
