<svg width="30" height="30" viewBox="0 0 30 30" fill="none" xmlns="http://www.w3.org/2000/svg">
<path d="M14.9978 2.50002C11.238 2.50002 8.80023 5.02375 5.91714 5.94364C4.74486 6.31768 4.15871 6.50469 3.9215 6.76833C3.68429 7.03196 3.61483 7.4172 3.4759 8.18768C1.98929 16.4325 5.23862 24.055 12.9879 27.0219C13.8205 27.3406 14.2368 27.5 15.0019 27.5C15.7669 27.5 16.1832 27.3406 17.0158 27.0218C24.7645 24.0549 28.0108 16.4325 26.5237 8.18767C26.3847 7.41706 26.3152 7.03176 26.078 6.76812C25.8407 6.50449 25.2546 6.31757 24.0824 5.94375C21.1982 5.02395 18.7576 2.50002 14.9978 2.50002Z" stroke="white" stroke-width="1.5" stroke-linecap="round" stroke-linejoin="round"/>
<path d="M11.9754 19.8217L11.6711 20.5072L11.6711 20.5072L11.9754 19.8217ZM10.7915 18.5532L10.092 18.8237H10.092L10.7915 18.5532ZM19.2085 18.5532L19.908 18.8237V18.8237L19.2085 18.5532ZM18.0246 19.8217L18.3289 20.5072L18.3289 20.5072L18.0246 19.8217ZM18.0246 13.1472L18.3289 12.4617L18.0246 13.1472ZM19.2085 14.4156L19.908 14.1452V14.1452L19.2085 14.4156ZM11.9754 13.1472L11.6711 12.4617L11.9754 13.1472ZM10.7915 14.4156L10.092 14.1452H10.092L10.7915 14.4156ZM12.0625 12.9688C12.0625 13.383 12.3983 13.7188 12.8125 13.7188C13.2267 13.7188 13.5625 13.383 13.5625 12.9688H12.0625ZM16.4375 12.9688C16.4375 13.383 16.7733 13.7188 17.1875 13.7188C17.6017 13.7188 17.9375 13.383 17.9375 12.9688H16.4375ZM13.9062 13.7188H16.0938V12.2188H13.9062V13.7188ZM16.0938 19.2501H13.9062V20.7501H16.0938V19.2501ZM13.9062 19.2501C13.3856 19.2501 13.0354 19.2496 12.764 19.2298C12.5005 19.2105 12.3691 19.1758 12.2796 19.1361L11.6711 20.5072C11.9837 20.6459 12.3081 20.7004 12.6547 20.7258C12.9934 20.7505 13.4076 20.7501 13.9062 20.7501V19.2501ZM9.875 16.4844C9.875 17.0209 9.87465 17.4583 9.89733 17.8145C9.92038 18.1765 9.96942 18.5067 10.092 18.8237L11.4911 18.2828C11.4471 18.1691 11.4129 18.0108 11.3943 17.7192C11.3754 17.4217 11.375 17.04 11.375 16.4844H9.875ZM12.2796 19.1361C11.935 18.9832 11.6454 18.6821 11.4911 18.2828L10.092 18.8237C10.3816 19.5729 10.9438 20.1844 11.6711 20.5072L12.2796 19.1361ZM18.625 16.4844C18.625 17.04 18.6246 17.4217 18.6057 17.7192C18.5871 18.0108 18.5529 18.1691 18.5089 18.2828L19.908 18.8237C20.0306 18.5067 20.0796 18.1765 20.1027 17.8145C20.1254 17.4583 20.125 17.0209 20.125 16.4844H18.625ZM16.0938 20.7501C16.5924 20.7501 17.0066 20.7505 17.3453 20.7258C17.6919 20.7004 18.0163 20.6459 18.3289 20.5072L17.7204 19.1361C17.6309 19.1758 17.4995 19.2105 17.236 19.2298C16.9646 19.2496 16.6144 19.2501 16.0938 19.2501V20.7501ZM18.5089 18.2828C18.3546 18.6821 18.065 18.9832 17.7204 19.1361L18.3289 20.5072C19.0562 20.1844 19.6184 19.5729 19.908 18.8237L18.5089 18.2828ZM16.0938 13.7188C16.6144 13.7188 16.9646 13.7193 17.236 13.7391C17.4995 13.7584 17.6309 13.793 17.7204 13.8327L18.3289 12.4617C18.0163 12.323 17.6919 12.2684 17.3453 12.2431C17.0066 12.2183 16.5924 12.2188 16.0938 12.2188V13.7188ZM20.125 16.4844C20.125 15.948 20.1254 15.5106 20.1027 15.1544C20.0796 14.7923 20.0306 14.4622 19.908 14.1452L18.5089 14.6861C18.5529 14.7998 18.5871 14.958 18.6057 15.2497C18.6246 15.5472 18.625 15.9288 18.625 16.4844H20.125ZM17.7204 13.8327C18.065 13.9857 18.3546 14.2868 18.5089 14.6861L19.908 14.1452C19.6184 13.396 19.0562 12.7845 18.3289 12.4617L17.7204 13.8327ZM13.9062 12.2188C13.4076 12.2188 12.9934 12.2183 12.6547 12.2431C12.3081 12.2684 11.9837 12.323 11.6711 12.4617L12.2796 13.8327C12.3691 13.793 12.5005 13.7584 12.764 13.7391C13.0354 13.7193 13.3856 13.7188 13.9062 13.7188V12.2188ZM11.375 16.4844C11.375 15.9288 11.3754 15.5472 11.3943 15.2497C11.4129 14.958 11.4471 14.7998 11.4911 14.6861L10.092 14.1452C9.96942 14.4622 9.92038 14.7923 9.89733 15.1544C9.87465 15.5106 9.875 15.948 9.875 16.4844H11.375ZM11.6711 12.4617C10.9438 12.7845 10.3816 13.396 10.092 14.1452L11.4911 14.6861C11.6454 14.2868 11.935 13.9857 12.2796 13.8327L11.6711 12.4617ZM13.5625 12.9688V10.8594H12.0625V12.9688H13.5625ZM16.4375 10.8594V12.9688H17.9375V10.8594H16.4375ZM15 9.50006C15.8199 9.50006 16.4375 10.1341 16.4375 10.8594H17.9375C17.9375 9.25477 16.5964 8.00006 15 8.00006V9.50006ZM13.5625 10.8594C13.5625 10.1341 14.1801 9.50006 15 9.50006V8.00006C13.4036 8.00006 12.0625 9.25477 12.0625 10.8594H13.5625Z" fill="white"/>
</svg>
