<svg width="29" height="30" viewBox="0 0 29 30" fill="none" xmlns="http://www.w3.org/2000/svg">
<g id="elements">
<path id="Vector (Stroke)" d="M12.5877 1.40476C13.1425 0.981475 13.7521 0.666656 14.5003 0.666656C15.2485 0.666656 15.8581 0.981474 16.4129 1.40476C16.9325 1.80117 17.5056 2.37432 18.1761 3.04488L18.1761 3.04489L18.2232 3.09204C18.9093 3.77813 19.5074 4.04833 20.4309 4.04833C20.5463 4.04833 20.6926 4.04419 20.8579 4.03951C21.2776 4.02762 21.8204 4.01225 22.2945 4.05227C22.9899 4.11099 23.8609 4.29784 24.5252 4.95661C25.1946 5.62043 25.3861 6.49504 25.4466 7.19485C25.488 7.67327 25.4726 8.22008 25.4607 8.64279L25.4607 8.64295C25.4561 8.80778 25.452 8.95374 25.452 9.0694C25.452 9.6705 25.5187 10.0062 25.6346 10.2714C25.7535 10.5437 25.9634 10.8322 26.4083 11.2771L26.4555 11.3243C27.126 11.9948 27.6991 12.5678 28.0956 13.0874C28.5188 13.6422 28.8336 14.2517 28.8337 15C28.8336 15.7482 28.5188 16.3578 28.0955 16.9126C27.6991 17.4322 27.1258 18.0054 26.4551 18.6761L26.4083 18.7229C25.9634 19.1677 25.7535 19.4562 25.6346 19.7285C25.5187 19.9937 25.452 20.3294 25.452 20.9305C25.452 21.0462 25.4561 21.1922 25.4607 21.357L25.4607 21.3571C25.4726 21.7799 25.488 22.3267 25.4466 22.8051C25.3861 23.505 25.1946 24.3796 24.5251 25.0434C23.8608 25.7021 22.9898 25.8889 22.2944 25.9476C21.8204 25.9877 21.2776 25.9723 20.8579 25.9604C20.6926 25.9557 20.5463 25.9516 20.4309 25.9516C19.8426 25.9516 19.512 26.0107 19.2517 26.1182C18.9917 26.2255 18.7136 26.4175 18.2947 26.8365C18.2052 26.9259 18.0873 27.0523 17.9513 27.1981L17.9513 27.1981C17.6447 27.5267 17.2461 27.954 16.8738 28.2794C16.3087 28.7733 15.4983 29.3333 14.5003 29.3333C13.5024 29.3333 12.692 28.7733 12.1269 28.2794C11.7546 27.954 11.356 27.5268 11.0494 27.1981L11.0494 27.1981C10.9134 27.0523 10.7955 26.9259 10.706 26.8365C10.2871 26.4175 10.009 26.2255 9.74893 26.1182C9.48867 26.0107 9.15803 25.9516 8.56974 25.9516C8.45432 25.9516 8.30807 25.9557 8.14271 25.9604C7.72303 25.9723 7.18029 25.9877 6.70623 25.9476C6.01082 25.8889 5.1398 25.7021 4.47552 25.0434C3.8061 24.3796 3.61458 23.505 3.55405 22.8051C3.51267 22.3267 3.52806 21.7799 3.53995 21.3571L3.53995 21.3571C3.54459 21.1922 3.5487 21.0462 3.5487 20.9305C3.5487 20.3294 3.48191 19.9937 3.36609 19.7286C3.24714 19.4562 3.03729 19.1678 2.5924 18.7229L2.54559 18.6761C1.87487 18.0054 1.30159 17.4322 0.905105 16.9126C0.481826 16.3578 0.167011 15.7482 0.166992 15C0.167003 14.2518 0.48182 13.6422 0.905098 13.0874C1.30151 12.5678 1.87466 11.9947 2.54521 11.3242L2.59236 11.2771C3.2786 10.5909 3.5487 9.99263 3.5487 9.0694C3.5487 8.95397 3.54456 8.80772 3.53987 8.64236V8.64235C3.52799 8.22266 3.51261 7.67992 3.55264 7.20585C3.61135 6.51042 3.79819 5.63939 4.45693 4.97511C5.12075 4.30571 5.99537 4.1142 6.69519 4.05368C7.17362 4.0123 7.72044 4.02769 8.14315 4.03958C8.30805 4.04422 8.45406 4.04833 8.56976 4.04833C9.49298 4.04833 10.0912 3.77826 10.7774 3.09204L10.8246 3.04488L10.8246 3.04487C11.4951 2.37431 12.0682 1.80117 12.5877 1.40476Z" fill="#2B95E9"/>
<path id="Vector 6662 (Stroke)" d="M19.683 11.051C20.0232 11.7041 19.7695 12.5093 19.1164 12.8495C17.8203 13.5245 16.5737 14.9595 15.6001 16.3793C15.1291 17.0661 14.7509 17.7061 14.4909 18.174C14.3438 18.4335 14.1707 18.7732 14.1025 18.9106C13.8923 19.3481 13.4607 19.6373 12.9759 19.6648C12.4911 19.6923 12.0296 19.454 11.7714 19.0427C11.4964 18.605 11.0432 18.1845 10.5984 17.8496C10.4709 17.7508 10.0557 17.4836 9.86407 17.3624C9.21732 17.0108 8.97743 16.2013 9.32883 15.5543C9.6803 14.9072 10.4898 14.6676 11.1369 15.0191L11.139 15.0203L11.4687 15.2152C11.6573 15.3328 11.9154 15.5032 12.2025 15.7193C12.3369 15.8205 12.4824 15.9353 12.6333 16.0631C12.8544 15.6976 13.1116 15.293 13.4008 14.8712C14.4273 13.3744 15.9806 11.476 17.8846 10.4844C18.5377 10.1442 19.3429 10.3979 19.683 11.051Z" fill="white"/>
</g>
</svg>
