<svg width="27" height="27" viewBox="0 0 27 27" fill="none" xmlns="http://www.w3.org/2000/svg">
<path d="M24.7499 9.18263L24.7499 9.26422C24.7499 10.2326 24.7499 10.7167 24.5168 11.1129C24.2837 11.509 23.8605 11.7441 23.014 12.2144L22.1215 12.7102C22.7365 10.6311 22.9417 8.39716 23.0176 6.48672C23.0208 6.40481 23.0245 6.32189 23.0282 6.23809L23.0308 6.17939C23.7635 6.43383 24.1748 6.62352 24.4315 6.97959C24.75 7.42154 24.75 8.00857 24.7499 9.18263Z" fill="url(#paint0_linear_1433_919)"/>
<path d="M2.25 9.18263L2.25 9.26422C2.25003 10.2326 2.25004 10.7167 2.48313 11.1129C2.71622 11.509 3.13946 11.7441 3.98593 12.2144L4.87891 12.7105C4.26383 10.6313 4.05863 8.39724 3.98278 6.48672C3.97953 6.40481 3.97587 6.32189 3.97216 6.23809L3.96957 6.17925C3.23663 6.43376 2.82516 6.62346 2.56848 6.97959C2.24995 7.42154 2.24997 8.00858 2.25 9.18263Z" fill="url(#paint1_linear_1433_919)"/>
<path fill-rule="evenodd" clip-rule="evenodd" d="M13.5002 2.25C15.5067 2.25 17.1597 2.42672 18.4243 2.64009C19.7053 2.85623 20.3459 2.9643 20.8811 3.62344C21.4162 4.28257 21.388 4.99497 21.3314 6.41978C21.1372 11.3113 20.0816 17.4209 14.3438 17.9614V21.9375H15.9527C16.489 21.9375 16.9507 22.316 17.0559 22.8419L17.2688 23.9062H20.25C20.716 23.9062 21.0938 24.284 21.0938 24.75C21.0938 25.216 20.716 25.5938 20.25 25.5938H6.75C6.28401 25.5938 5.90625 25.216 5.90625 24.75C5.90625 24.284 6.28401 23.9062 6.75 23.9062H9.73125L9.94413 22.8419C10.0493 22.316 10.511 21.9375 11.0473 21.9375H12.6562V17.9614C6.9187 17.4207 5.86315 11.3112 5.66895 6.41978C5.61239 4.99497 5.5841 4.28257 6.11929 3.62344C6.65447 2.9643 7.295 2.85623 8.57608 2.64009C9.84065 2.42672 11.4937 2.25 13.5002 2.25ZM14.5714 6.97373L14.4608 6.77533C14.0333 6.00844 13.8196 5.625 13.5 5.625C13.1804 5.625 12.9667 6.00844 12.5392 6.77533L12.4286 6.97373C12.3071 7.19165 12.2464 7.30062 12.1517 7.37251C12.057 7.4444 11.939 7.47109 11.7031 7.52447L11.4883 7.57306C10.6582 7.76089 10.2431 7.8548 10.1444 8.17236C10.0456 8.48992 10.3286 8.82081 10.8945 9.4826L11.0409 9.65381C11.2018 9.84187 11.2822 9.9359 11.3184 10.0522C11.3545 10.1686 11.3424 10.294 11.3181 10.5449L11.2959 10.7734C11.2104 11.6563 11.1676 12.0978 11.4261 12.2941C11.6846 12.4903 12.0733 12.3114 12.8505 11.9535L13.0516 11.8609C13.2725 11.7592 13.3829 11.7084 13.5 11.7084C13.6171 11.7084 13.7275 11.7592 13.9484 11.8609L14.1495 11.9535C14.9267 12.3114 15.3154 12.4903 15.5739 12.2941C15.8324 12.0978 15.7896 11.6563 15.7041 10.7734L15.6819 10.5449C15.6576 10.294 15.6455 10.1686 15.6816 10.0522C15.7178 9.9359 15.7982 9.84187 15.9591 9.65381L16.1055 9.4826C16.6714 8.82081 16.9544 8.48992 16.8556 8.17236C16.7569 7.8548 16.3418 7.76089 15.5117 7.57306L15.2969 7.52447C15.061 7.47109 14.943 7.4444 14.8483 7.37251C14.7536 7.30062 14.6929 7.19165 14.5714 6.97373Z" fill="url(#paint2_linear_1433_919)"/>
<defs>
<linearGradient id="paint0_linear_1433_919" x1="13.5" y1="2.25" x2="13.5" y2="25.5938" gradientUnits="userSpaceOnUse">
<stop stop-color="#F8F8F8" stop-opacity="0.9"/>
<stop offset="1" stop-color="#F8F8F8" stop-opacity="0.3"/>
</linearGradient>
<linearGradient id="paint1_linear_1433_919" x1="13.5" y1="2.25" x2="13.5" y2="25.5938" gradientUnits="userSpaceOnUse">
<stop stop-color="#F8F8F8" stop-opacity="0.9"/>
<stop offset="1" stop-color="#F8F8F8" stop-opacity="0.3"/>
</linearGradient>
<linearGradient id="paint2_linear_1433_919" x1="13.5" y1="2.25" x2="13.5" y2="25.5938" gradientUnits="userSpaceOnUse">
<stop stop-color="#F8F8F8" stop-opacity="0.9"/>
<stop offset="1" stop-color="#F8F8F8" stop-opacity="0.3"/>
</linearGradient>
</defs>
</svg>
