<svg width="22" height="22" viewBox="0 0 22 22" fill="none" xmlns="http://www.w3.org/2000/svg">
<g id="elements">
<path id="Ellipse 441" d="M7.37574 2C7.16183 2.07993 6.95146 2.16712 6.74492 2.26126M19.7177 15.3011C19.8199 15.0799 19.9141 14.8542 20 14.6245M17.4988 18.3647C17.6705 18.2044 17.8365 18.0381 17.9963 17.866M14.2689 20.3723C14.463 20.2991 14.6541 20.22 14.8421 20.1351M11.156 20.9939C10.9251 21.0019 10.6926 21.0019 10.4616 20.9939M6.78731 20.1404C6.96811 20.2217 7.15183 20.2978 7.33825 20.3683M3.67255 17.9208C3.80924 18.0657 3.95029 18.2064 4.0955 18.3428M1.6327 14.6645C1.70758 14.8622 1.78867 15.0569 1.87572 15.2483M1.00497 11.5053C0.998476 11.2972 0.998495 11.0878 1.00497 10.8794M1.62545 7.73714C1.69901 7.54165 1.77864 7.34913 1.8641 7.1598M3.65602 4.47923C3.80068 4.32514 3.95025 4.17573 4.1045 4.03124" stroke="#636363" stroke-width="1.5" stroke-linecap="round" stroke-linejoin="round"/>
<path id="Vector" d="M12.5 11C12.5 11.8284 11.8284 12.5 11 12.5C10.1716 12.5 9.5 11.8284 9.5 11C9.5 10.1716 10.1716 9.5 11 9.5M12.5 11C12.5 10.1716 11.8284 9.5 11 9.5M12.5 11H15M11 9.5V5" stroke="#636363" stroke-width="1.5" stroke-linecap="round"/>
<path id="Ellipse 440" d="M21 11C21 5.47715 16.5228 1 11 1" stroke="#636363" stroke-width="1.5" stroke-linecap="round"/>
</g>
</svg>
