<svg width="23" height="24" viewBox="0 0 23 24" fill="none" xmlns="http://www.w3.org/2000/svg">
<path d="M22.75 7.18293V7.26452C22.75 8.2329 22.75 8.717 22.5169 9.1132C22.2838 9.5093 21.8606 9.7444 21.0141 10.2147L20.1216 10.7105C20.7366 8.6314 20.9418 6.39746 21.0177 4.48702C21.0209 4.40511 21.0246 4.32219 21.0283 4.23839L21.0309 4.17969C21.7636 4.43413 22.1749 4.62382 22.4316 4.97989C22.7501 5.42184 22.7501 6.00887 22.75 7.18293Z" fill="url(#paint0_linear_229_16)"/>
<path d="M0.250001 7.18307V7.26466C0.250031 8.23304 0.250041 8.71714 0.483131 9.11334C0.716221 9.50944 1.13946 9.74454 1.98593 10.2148L2.87891 10.7109C2.26383 8.63174 2.05863 6.39768 1.98278 4.48716C1.97953 4.40525 1.97587 4.32233 1.97216 4.23853L1.96957 4.17969C1.23663 4.4342 0.825161 4.6239 0.568481 4.98003C0.249951 5.42198 0.249971 6.00902 0.250001 7.18307Z" fill="url(#paint1_linear_229_16)"/>
<path fill-rule="evenodd" clip-rule="evenodd" d="M11.5 0.25C13.5065 0.25 15.1595 0.42672 16.4241 0.64009C17.7051 0.85623 18.3457 0.9643 18.8809 1.62344C19.416 2.28257 19.3878 2.99497 19.3312 4.41978C19.137 9.3113 18.0814 15.4209 12.3436 15.9614V19.9375H13.9525C14.4888 19.9375 14.9505 20.316 15.0557 20.8419L15.2686 21.9062H18.2498C18.7158 21.9062 19.0936 22.284 19.0936 22.75C19.0936 23.216 18.7158 23.5938 18.2498 23.5938H4.74982C4.28383 23.5938 3.90607 23.216 3.90607 22.75C3.90607 22.284 4.28383 21.9062 4.74982 21.9062H7.73107L7.94395 20.8419C8.04912 20.316 8.51082 19.9375 9.04712 19.9375H10.656V15.9614C4.91852 15.4207 3.86297 9.3112 3.66877 4.41978C3.61221 2.99497 3.58392 2.28257 4.11911 1.62344C4.65429 0.9643 5.29482 0.85623 6.5759 0.64009C7.84047 0.42672 9.49352 0.25 11.5 0.25ZM12.5712 4.97373L12.4606 4.77533C12.0331 4.00844 11.8194 3.625 11.4998 3.625C11.1802 3.625 10.9665 4.00844 10.539 4.77533L10.4284 4.97373C10.3069 5.19165 10.2462 5.30062 10.1515 5.37251C10.0568 5.4444 9.93882 5.47109 9.70292 5.52447L9.48812 5.57306C8.65802 5.76089 8.24292 5.8548 8.14422 6.17236C8.04542 6.48992 8.32842 6.82081 8.89432 7.4826L9.04072 7.65381C9.20162 7.84187 9.28202 7.9359 9.31822 8.0522C9.35432 8.1686 9.34222 8.294 9.31792 8.5449L9.29572 8.7734C9.21022 9.6563 9.16742 10.0978 9.42592 10.2941C9.68442 10.4903 10.0731 10.3114 10.8503 9.9535L11.0514 9.8609C11.2723 9.7592 11.3827 9.7084 11.4998 9.7084C11.6169 9.7084 11.7273 9.7592 11.9482 9.8609L12.1493 9.9535C12.9265 10.3114 13.3152 10.4903 13.5737 10.2941C13.8322 10.0978 13.7894 9.6563 13.7039 8.7734L13.6817 8.5449C13.6574 8.294 13.6453 8.1686 13.6814 8.0522C13.7176 7.9359 13.798 7.84187 13.9589 7.65381L14.1053 7.4826C14.6712 6.82081 14.9542 6.48992 14.8554 6.17236C14.7567 5.8548 14.3416 5.76089 13.5115 5.57306L13.2967 5.52447C13.0608 5.47109 12.9428 5.4444 12.8481 5.37251C12.7534 5.30062 12.6927 5.19165 12.5712 4.97373Z" fill="url(#paint2_linear_229_16)"/>
<defs>
<linearGradient id="paint0_linear_229_16" x1="11.5001" y1="0.250297" x2="11.5001" y2="23.5941" gradientUnits="userSpaceOnUse">
<stop offset="1" stop-color="#F8F8F8"/>
</linearGradient>
<linearGradient id="paint1_linear_229_16" x1="11.5" y1="0.250438" x2="11.5" y2="23.5942" gradientUnits="userSpaceOnUse">
<stop offset="1" stop-color="#F8F8F8"/>
</linearGradient>
<linearGradient id="paint2_linear_229_16" x1="11.4998" y1="0.25" x2="11.4998" y2="23.5938" gradientUnits="userSpaceOnUse">
<stop offset="1" stop-color="#F8F8F8"/>
</linearGradient>
</defs>
</svg>
