<svg width="415" height="415" viewBox="0 0 415 415" fill="none" xmlns="http://www.w3.org/2000/svg">
<g clip-path="url(#clip0_214_12)">
<g filter="url(#filter0_ii_214_12)">
<mask id="path-1-inside-1_214_12" fill="white">
<path d="M367 0H48C25.3726 0 14.0589 0 7.02944 7.02944C0 14.0589 0 25.3726 0 48V305.96C0 315.846 0 320.789 1.85263 325.227C3.70526 329.664 7.21985 333.14 14.249 340.091L75.9744 401.13C82.896 407.975 86.3569 411.397 90.7402 413.199C95.1236 415 99.9909 415 109.725 415H306.118C315.928 415 320.833 415 325.243 413.173C329.654 411.346 333.122 407.878 340.059 400.941L400.941 340.059C407.878 333.122 411.346 329.654 413.173 325.243C415 320.833 415 315.928 415 306.118V48C415 25.3726 415 14.0589 407.971 7.02944C400.941 0 389.627 0 367 0Z"/>
</mask>
<path d="M367 0H48C25.3726 0 14.0589 0 7.02944 7.02944C0 14.0589 0 25.3726 0 48V305.96C0 315.846 0 320.789 1.85263 325.227C3.70526 329.664 7.21985 333.14 14.249 340.091L75.9744 401.13C82.896 407.975 86.3569 411.397 90.7402 413.199C95.1236 415 99.9909 415 109.725 415H306.118C315.928 415 320.833 415 325.243 413.173C329.654 411.346 333.122 407.878 340.059 400.941L400.941 340.059C407.878 333.122 411.346 329.654 413.173 325.243C415 320.833 415 315.928 415 306.118V48C415 25.3726 415 14.0589 407.971 7.02944C400.941 0 389.627 0 367 0Z" fill="white" fill-opacity="0.03"/>
<path d="M7.02944 7.02944L6.32233 6.32233L6.32233 6.32233L7.02944 7.02944ZM1.85263 325.227L0.929809 325.612L0.92984 325.612L1.85263 325.227ZM14.249 340.091L13.5459 340.802L13.5459 340.802L14.249 340.091ZM75.9744 401.13L76.6776 400.419L76.6775 400.419L75.9744 401.13ZM90.7402 413.199L90.36 414.124L90.3602 414.124L90.7402 413.199ZM325.243 413.173L324.86 412.249L324.86 412.249L325.243 413.173ZM413.173 325.243L412.249 324.86L412.249 324.86L413.173 325.243ZM407.971 7.02944L408.678 6.32236L408.678 6.3223L407.971 7.02944ZM367 -1H48V1H367V-1ZM48 -1C36.7146 -1 28.1499 -1.00212 21.5322 -0.112403C14.8858 0.781186 10.0538 2.59084 6.32233 6.32233L7.73655 7.73655C11.0345 4.4386 15.3741 2.73353 21.7987 1.86976C28.2522 1.00212 36.658 1 48 1V-1ZM6.32233 6.32233C2.59084 10.0538 0.781186 14.8858 -0.112403 21.5322C-1.00212 28.1499 -1 36.7146 -1 48H1C1 36.658 1.00212 28.2522 1.86976 21.7987C2.73353 15.3741 4.4386 11.0345 7.73655 7.73655L6.32233 6.32233ZM-1 48V305.96H1V48H-1ZM-1 305.96C-1 315.764 -1.01795 320.946 0.929809 325.612L2.77545 324.842C1.01795 320.632 1 315.928 1 305.96H-1ZM0.92984 325.612C2.87762 330.277 6.57519 333.909 13.5459 340.802L14.9521 339.38C7.86451 332.371 4.5329 329.051 2.77542 324.842L0.92984 325.612ZM13.5459 340.802L75.2713 401.841L76.6775 400.419L14.9521 339.38L13.5459 340.802ZM75.2712 401.841C82.1354 408.629 85.7517 412.229 90.36 414.124L91.1204 412.274C86.9621 410.565 83.6566 407.321 76.6776 400.419L75.2712 401.841ZM90.3602 414.124C94.9686 416.017 100.072 416 109.725 416V414C99.91 414 95.2786 413.983 91.1202 412.274L90.3602 414.124ZM109.725 416H306.118V414H109.725V416ZM306.118 416C315.846 416 320.989 416.018 325.626 414.097L324.86 412.249C320.677 413.982 316.01 414 306.118 414V416ZM325.626 414.097C330.263 412.176 333.887 408.527 340.766 401.648L339.352 400.234C332.357 407.229 329.045 410.516 324.86 412.249L325.626 414.097ZM340.766 401.648L401.648 340.766L400.234 339.352L339.352 400.234L340.766 401.648ZM401.648 340.766C408.527 333.887 412.176 330.263 414.097 325.626L412.249 324.86C410.516 329.045 407.229 332.357 400.234 339.352L401.648 340.766ZM414.097 325.626C416.018 320.989 416 315.846 416 306.118H414C414 316.01 413.982 320.677 412.249 324.86L414.097 325.626ZM416 306.118V48H414V306.118H416ZM416 48C416 36.7146 416.002 28.1499 415.112 21.5323C414.219 14.8858 412.409 10.0539 408.678 6.32236L407.264 7.73652C410.562 11.0345 412.267 15.3741 413.13 21.7987C413.998 28.2521 414 36.658 414 48H416ZM408.678 6.3223C404.946 2.59084 400.114 0.781185 393.468 -0.112403C386.85 -1.00212 378.285 -1 367 -1V1C378.342 1 386.748 1.00212 393.201 1.86976C399.626 2.73353 403.966 4.4386 407.264 7.73657L408.678 6.3223Z" fill="#C8C8C8" fill-opacity="0.12" mask="url(#path-1-inside-1_214_12)"/>
</g>
<g filter="url(#filter1_ii_214_12)">
<path d="M357.892 13H57.9616C36.7607 13 26.1602 13 19.5587 19.58C12.9572 26.1599 12.9226 36.7604 12.8534 57.9612L12.062 300.415C12.0315 309.76 12.0163 314.432 13.7625 318.628C15.5086 322.824 18.8345 326.106 25.4864 332.67L83.5829 389.999C90.0848 396.415 93.3358 399.623 97.4503 401.312C101.565 403 106.132 403 115.267 403H300.677C309.896 403 314.505 403 318.65 401.283C322.795 399.566 326.055 396.307 332.573 389.788L389.788 332.573C396.307 326.055 399.566 322.795 401.283 318.65C403 314.505 403 309.896 403 300.677V58.1084C403 36.8441 403 26.212 396.394 19.606C389.788 13 379.156 13 357.892 13Z" fill="#C8C8C8" fill-opacity="0.12"/>
</g>
<g filter="url(#filter2_i_214_12)">
<path d="M268.614 372.66C273.029 372.66 276.976 372.075 280.831 370.392C285.193 368.488 289.018 365.538 291.968 361.802C292.873 360.656 293.841 359.065 294.748 357.41C297.488 352.412 298.047 346.64 298.047 340.941V336.509C298.047 335.343 297.102 334.398 295.936 334.398H268.614V343.227H290.177C290.221 344.674 290.115 346.127 289.858 347.563C289.25 350.951 287.816 354.137 285.682 356.839C283.549 359.541 280.782 361.675 277.627 363.052C274.785 364.293 272.048 364.812 268.614 364.812V372.66Z" fill="#C8C8C8"/>
<path d="M300.992 334.399V372.662H309.822V334.399H300.992Z" fill="#C8C8C8"/>
</g>
<g filter="url(#filter3_i_214_12)">
<path d="M43.0723 64.0721L50.7407 43.0215H55.5523L63.2207 64.0721H59.7624L57.9581 59.1101H48.3349L46.5306 64.0721H43.0723ZM49.3874 56.2533H56.9055L53.4472 46.6301H52.8458L49.3874 56.2533ZM64.1205 64.0721V43.0215H67.1277V64.0721H64.1205ZM69.9917 70.0865V49.0359H72.6982L72.9989 50.8403H73.1493C73.47 50.4794 73.7407 50.1987 73.9612 49.9982C74.1817 49.7777 74.6529 49.5171 75.3746 49.2164C76.1164 48.8956 76.9283 48.7352 77.8105 48.7352C79.8153 48.7352 81.4693 49.4469 82.7724 50.8703C84.0755 52.2938 84.7271 54.1883 84.7271 56.554C84.7271 58.9197 84.0755 60.8142 82.7724 62.2377C81.4693 63.6611 79.8153 64.3728 77.8105 64.3728C75.7455 64.3728 74.1918 63.6711 73.1493 62.2677H72.9989V70.0865H69.9917ZM74.2319 60.2529C75.0739 61.1951 76.1164 61.6663 77.3594 61.6663C78.6024 61.6663 79.6348 61.1951 80.4568 60.2529C81.2988 59.3106 81.7199 58.0777 81.7199 56.554C81.7199 55.0303 81.2988 53.7974 80.4568 52.8551C79.6348 51.9128 78.6024 51.4417 77.3594 51.4417C76.1164 51.4417 75.0739 51.9128 74.2319 52.8551C73.4099 53.7974 72.9989 55.0303 72.9989 56.554C72.9989 58.0777 73.4099 59.3106 74.2319 60.2529ZM86.8239 64.0721V43.0215H89.8312V50.5395H89.9815C90.3223 50.1987 90.6932 49.898 91.0942 49.6374C92.0565 49.0359 93.1391 48.7352 94.342 48.7352C96.1664 48.7352 97.6199 49.3066 98.7025 50.4493C99.8051 51.572 100.356 53.1057 100.356 55.0504V64.0721H97.3492V55.0504C97.3492 54.068 96.9984 53.226 96.2967 52.5243C95.6151 51.8026 94.763 51.4417 93.7406 51.4417C92.6379 51.4417 91.7057 51.8026 90.9438 52.5243C90.202 53.226 89.8312 54.068 89.8312 55.0504V64.0721H86.8239ZM112.688 64.0721L112.388 62.4181H112.237C111.937 62.799 111.576 63.1298 111.155 63.4105C110.192 64.052 109.05 64.3728 107.727 64.3728C106.083 64.3728 104.769 63.9418 103.787 63.0797C102.805 62.2176 102.314 61.0949 102.314 59.7116C102.314 58.1679 102.825 56.955 103.847 56.0728C104.89 55.1907 106.433 54.7497 108.478 54.7497H112.237V54.4489C112.237 53.4666 111.957 52.6947 111.395 52.1334C110.834 51.572 110.062 51.2913 109.08 51.2913C108.117 51.2913 107.376 51.5119 106.854 51.9529C106.333 52.3739 106.022 52.8551 105.922 53.3964H102.915C102.995 52.0732 103.587 50.9706 104.689 50.0884C105.792 49.1863 107.255 48.7352 109.08 48.7352C111.024 48.7352 112.538 49.2464 113.621 50.2689C114.703 51.2913 115.245 52.6847 115.245 54.4489V64.0721H112.688ZM112.237 57.7569V57.1554H108.629C107.526 57.1554 106.694 57.376 106.133 57.817C105.591 58.2581 105.321 58.8395 105.321 59.5612C105.321 60.2629 105.551 60.8142 106.012 61.2152C106.474 61.6162 107.145 61.8166 108.027 61.8166C109.391 61.8166 110.433 61.4658 111.155 60.7641C111.876 60.0424 112.237 59.04 112.237 57.7569ZM118.106 64.0721V43.0215H121.264V61.0648H131.488V64.0721H118.106ZM134.511 55.3511H143.382C143.222 54.1282 142.751 53.1458 141.969 52.404C141.187 51.6622 140.205 51.2913 139.022 51.2913C137.779 51.2913 136.776 51.6622 136.014 52.404C135.253 53.1258 134.751 54.1081 134.511 55.3511ZM142.63 59.7116H145.788C145.347 60.9145 144.545 61.9971 143.382 62.9594C142.239 63.9017 140.786 64.3728 139.022 64.3728C136.836 64.3728 135.032 63.6511 133.609 62.2076C132.205 60.7641 131.504 58.8796 131.504 56.554C131.504 54.2284 132.205 52.3439 133.609 50.9004C135.032 49.4569 136.836 48.7352 139.022 48.7352C141.067 48.7352 142.781 49.4369 144.164 50.8403C145.547 52.2436 146.239 53.9978 146.239 56.1029C146.239 56.2833 146.209 56.6442 146.149 57.1855L146.089 57.6065H134.511C134.671 58.8896 135.162 59.9121 135.984 60.6739C136.806 61.4357 137.819 61.8166 139.022 61.8166C139.864 61.8166 140.605 61.6162 141.247 61.2152C141.909 60.7942 142.37 60.293 142.63 59.7116ZM159.48 64.0721L159.179 62.2677H159.029C157.967 63.6711 156.413 64.3728 154.368 64.3728C152.363 64.3728 150.709 63.6611 149.406 62.2377C148.103 60.8142 147.451 58.9197 147.451 56.554C147.451 54.1883 148.103 52.2938 149.406 50.8703C150.709 49.4469 152.363 48.7352 154.368 48.7352C155.25 48.7352 156.052 48.8956 156.774 49.2164C157.515 49.5171 157.997 49.7777 158.217 49.9982C158.438 50.1987 158.708 50.4794 159.029 50.8403H159.179V43.0215H162.187V64.0721H159.48ZM151.691 60.2529C152.534 61.1951 153.576 61.6663 154.819 61.6663C156.062 61.6663 157.094 61.1951 157.916 60.2529C158.758 59.3106 159.179 58.0777 159.179 56.554C159.179 55.0303 158.758 53.7974 157.916 52.8551C157.094 51.9128 156.062 51.4417 154.819 51.4417C153.576 51.4417 152.534 51.9128 151.691 52.8551C150.87 53.7974 150.459 55.0303 150.459 56.554C150.459 58.0777 150.87 59.3106 151.691 60.2529ZM168.46 59.2304C169.262 60.0524 170.274 60.4634 171.497 60.4634C172.72 60.4634 173.723 60.0524 174.505 59.2304C175.307 58.3884 175.708 57.2958 175.708 55.9525C175.708 54.6093 175.307 53.5267 174.505 52.7047C173.723 51.8627 172.72 51.4417 171.497 51.4417C170.274 51.4417 169.262 51.8627 168.46 52.7047C167.678 53.5267 167.287 54.6093 167.287 55.9525C167.287 57.2958 167.678 58.3884 168.46 59.2304ZM164.731 64.9742H167.738C167.819 65.716 168.199 66.3475 168.881 66.8688C169.583 67.4101 170.505 67.6807 171.648 67.6807C172.851 67.6807 173.823 67.3098 174.565 66.5681C175.327 65.8463 175.708 64.9141 175.708 63.7713V61.3656H175.557C175.216 61.7064 174.916 61.977 174.655 62.1775C174.394 62.378 173.923 62.5985 173.242 62.8391C172.56 63.0596 171.778 63.1699 170.896 63.1699C168.991 63.1699 167.408 62.5083 166.145 61.1851C164.902 59.8419 164.28 58.0977 164.28 55.9525C164.28 53.8074 164.902 52.0732 166.145 50.75C167.408 49.4068 168.991 48.7352 170.896 48.7352C172.901 48.7352 174.454 49.3868 175.557 50.6899H175.708L176.008 49.0359H178.715V63.7713C178.715 65.7762 178.093 67.38 176.85 68.5829C175.607 69.7858 173.873 70.3872 171.648 70.3872C170.485 70.3872 169.442 70.2068 168.52 69.8459C167.598 69.4851 166.876 69.0139 166.355 68.4325C165.854 67.8712 165.463 67.2898 165.182 66.6884C164.922 66.107 164.771 65.5356 164.731 64.9742ZM183.675 55.3511H192.547C192.386 54.1282 191.915 53.1458 191.133 52.404C190.352 51.6622 189.369 51.2913 188.186 51.2913C186.943 51.2913 185.941 51.6622 185.179 52.404C184.417 53.1258 183.916 54.1081 183.675 55.3511ZM191.795 59.7116H194.953C194.512 60.9145 193.71 61.9971 192.547 62.9594C191.404 63.9017 189.951 64.3728 188.186 64.3728C186.001 64.3728 184.197 63.6511 182.773 62.2076C181.37 60.7641 180.668 58.8796 180.668 56.554C180.668 54.2284 181.37 52.3439 182.773 50.9004C184.197 49.4569 186.001 48.7352 188.186 48.7352C190.231 48.7352 191.945 49.4369 193.329 50.8403C194.712 52.2436 195.404 53.9978 195.404 56.1029C195.404 56.2833 195.374 56.6442 195.313 57.1855L195.253 57.6065H183.675C183.836 58.8896 184.327 59.9121 185.149 60.6739C185.971 61.4357 186.983 61.8166 188.186 61.8166C189.028 61.8166 189.77 61.6162 190.412 61.2152C191.073 60.7942 191.534 60.293 191.795 59.7116ZM197.368 64.0721V49.0359H199.924L200.225 50.3892H200.375C200.395 50.3691 200.455 50.299 200.555 50.1787C200.676 50.0584 200.746 49.9782 200.766 49.9381C200.806 49.898 200.886 49.8278 201.007 49.7276C201.127 49.6073 201.227 49.5271 201.307 49.487C201.387 49.4469 201.498 49.3968 201.638 49.3366C201.778 49.2565 201.919 49.2063 202.059 49.1863C202.219 49.1462 202.4 49.1161 202.6 49.0961C202.801 49.056 203.011 49.0359 203.232 49.0359H205.938V51.7424H203.533C201.428 51.7424 200.375 52.7849 200.375 54.8699V64.0721H197.368Z" fill="#C8C8C8"/>
</g>
</g>
<defs>
<filter id="filter0_ii_214_12" x="0" y="-2" width="415" height="419" filterUnits="userSpaceOnUse" color-interpolation-filters="sRGB">
<feFlood flood-opacity="0" result="BackgroundImageFix"/>
<feBlend mode="normal" in="SourceGraphic" in2="BackgroundImageFix" result="shape"/>
<feColorMatrix in="SourceAlpha" type="matrix" values="0 0 0 0 0 0 0 0 0 0 0 0 0 0 0 0 0 0 127 0" result="hardAlpha"/>
<feOffset dy="2"/>
<feGaussianBlur stdDeviation="2"/>
<feComposite in2="hardAlpha" operator="arithmetic" k2="-1" k3="1"/>
<feColorMatrix type="matrix" values="0 0 0 0 0 0 0 0 0 0 0 0 0 0 0 0 0 0 0.04 0"/>
<feBlend mode="normal" in2="shape" result="effect1_innerShadow_214_12"/>
<feColorMatrix in="SourceAlpha" type="matrix" values="0 0 0 0 0 0 0 0 0 0 0 0 0 0 0 0 0 0 127 0" result="hardAlpha"/>
<feOffset dy="-2"/>
<feGaussianBlur stdDeviation="2"/>
<feComposite in2="hardAlpha" operator="arithmetic" k2="-1" k3="1"/>
<feColorMatrix type="matrix" values="0 0 0 0 0 0 0 0 0 0 0 0 0 0 0 0 0 0 0.04 0"/>
<feBlend mode="normal" in2="effect1_innerShadow_214_12" result="effect2_innerShadow_214_12"/>
</filter>
<filter id="filter1_ii_214_12" x="12.0547" y="9" width="390.945" height="398" filterUnits="userSpaceOnUse" color-interpolation-filters="sRGB">
<feFlood flood-opacity="0" result="BackgroundImageFix"/>
<feBlend mode="normal" in="SourceGraphic" in2="BackgroundImageFix" result="shape"/>
<feColorMatrix in="SourceAlpha" type="matrix" values="0 0 0 0 0 0 0 0 0 0 0 0 0 0 0 0 0 0 127 0" result="hardAlpha"/>
<feOffset dy="-4"/>
<feGaussianBlur stdDeviation="2"/>
<feComposite in2="hardAlpha" operator="arithmetic" k2="-1" k3="1"/>
<feColorMatrix type="matrix" values="0 0 0 0 0 0 0 0 0 0 0 0 0 0 0 0 0 0 0.04 0"/>
<feBlend mode="normal" in2="shape" result="effect1_innerShadow_214_12"/>
<feColorMatrix in="SourceAlpha" type="matrix" values="0 0 0 0 0 0 0 0 0 0 0 0 0 0 0 0 0 0 127 0" result="hardAlpha"/>
<feOffset dy="4"/>
<feGaussianBlur stdDeviation="2"/>
<feComposite in2="hardAlpha" operator="arithmetic" k2="-1" k3="1"/>
<feColorMatrix type="matrix" values="0 0 0 0 0 0 0 0 0 0 0 0 0 0 0 0 0 0 0.04 0"/>
<feBlend mode="normal" in2="effect1_innerShadow_214_12" result="effect2_innerShadow_214_12"/>
</filter>
<filter id="filter2_i_214_12" x="268.614" y="334.398" width="41.208" height="42.2637" filterUnits="userSpaceOnUse" color-interpolation-filters="sRGB">
<feFlood flood-opacity="0" result="BackgroundImageFix"/>
<feBlend mode="normal" in="SourceGraphic" in2="BackgroundImageFix" result="shape"/>
<feColorMatrix in="SourceAlpha" type="matrix" values="0 0 0 0 0 0 0 0 0 0 0 0 0 0 0 0 0 0 127 0" result="hardAlpha"/>
<feOffset dy="4"/>
<feGaussianBlur stdDeviation="2"/>
<feComposite in2="hardAlpha" operator="arithmetic" k2="-1" k3="1"/>
<feColorMatrix type="matrix" values="0 0 0 0 0 0 0 0 0 0 0 0 0 0 0 0 0 0 0.15 0"/>
<feBlend mode="normal" in2="shape" result="effect1_innerShadow_214_12"/>
</filter>
<filter id="filter3_i_214_12" x="43.0723" y="43.0215" width="162.866" height="31.3652" filterUnits="userSpaceOnUse" color-interpolation-filters="sRGB">
<feFlood flood-opacity="0" result="BackgroundImageFix"/>
<feBlend mode="normal" in="SourceGraphic" in2="BackgroundImageFix" result="shape"/>
<feColorMatrix in="SourceAlpha" type="matrix" values="0 0 0 0 0 0 0 0 0 0 0 0 0 0 0 0 0 0 127 0" result="hardAlpha"/>
<feOffset dy="4"/>
<feGaussianBlur stdDeviation="2"/>
<feComposite in2="hardAlpha" operator="arithmetic" k2="-1" k3="1"/>
<feColorMatrix type="matrix" values="0 0 0 0 0 0 0 0 0 0 0 0 0 0 0 0 0 0 0.15 0"/>
<feBlend mode="normal" in2="shape" result="effect1_innerShadow_214_12"/>
</filter>
<clipPath id="clip0_214_12">
<rect width="415" height="415" fill="white"/>
</clipPath>
</defs>
</svg>
