<svg width="48" height="48" viewBox="0 0 48 48" fill="none" xmlns="http://www.w3.org/2000/svg">
<path d="M23.9964 4C17.9809 4 14.0804 8.03798 9.46743 9.5098C7.59177 10.1083 6.65394 10.4075 6.2744 10.8293C5.89486 11.2511 5.78372 11.8675 5.56144 13.1003C3.18287 26.292 8.3818 38.4879 20.7806 43.235C22.1128 43.745 22.7789 44 24.003 44C25.2271 44 25.8931 43.745 27.2252 43.2349C39.6232 38.4879 44.8172 26.2919 42.4379 13.1003C42.2156 11.8673 42.1044 11.2508 41.7248 10.829C41.3451 10.4072 40.4074 10.1081 38.5318 9.50997C33.9171 8.03829 30.0122 4 23.9964 4Z" stroke="url(#paint0_linear_1433_985)" stroke-width="1.5" stroke-linecap="round" stroke-linejoin="round"/>
<path d="M19.1606 31.7145L18.8564 32.4001H18.8564L19.1606 31.7145ZM17.2664 29.6851L16.5669 29.9555H16.5669L17.2664 29.6851ZM30.7336 29.6851L31.4331 29.9555V29.9555L30.7336 29.6851ZM28.8394 31.7145L29.1436 32.4001L28.8394 31.7145ZM28.8394 21.0355L29.1436 20.3499L28.8394 21.0355ZM30.7336 23.0649L31.4331 22.7945L30.7336 23.0649ZM19.1606 21.0355L18.8564 20.3499L19.1606 21.0355ZM17.2664 23.0649L16.5669 22.7945H16.5669L17.2664 23.0649ZM19.75 20.75C19.75 21.1642 20.0858 21.5 20.5 21.5C20.9142 21.5 21.25 21.1642 21.25 20.75H19.75ZM26.75 20.75C26.75 21.1642 27.0858 21.5 27.5 21.5C27.9142 21.5 28.25 21.1642 28.25 20.75H26.75ZM22.25 21.5H25.75V20H22.25V21.5ZM25.75 31.25H22.25L22.25 32.75H25.75V31.25ZM22.25 31.25C21.4236 31.25 20.8441 31.2495 20.3896 31.2163C19.943 31.1837 19.6749 31.1223 19.4648 31.029L18.8564 32.4001C19.2895 32.5923 19.7507 32.6736 20.2803 32.7123C20.8021 32.7505 21.4456 32.75 22.25 32.75L22.25 31.25ZM16.25 26.375C16.25 27.2391 16.2496 27.9222 16.2848 28.4745C16.3204 29.0326 16.3944 29.5093 16.5669 29.9555L17.966 29.4146C17.872 29.1717 17.8128 28.867 17.7818 28.3792C17.7504 27.8856 17.75 27.2582 17.75 26.375H16.25ZM19.4648 31.029C18.7986 30.7334 18.2536 30.1585 17.966 29.4146L16.5669 29.9555C16.9897 31.0493 17.8074 31.9345 18.8564 32.4001L19.4648 31.029ZM30.25 26.375C30.25 27.2582 30.2496 27.8856 30.2182 28.3792C30.1872 28.867 30.128 29.1717 30.034 29.4146L31.4331 29.9555C31.6056 29.5093 31.6796 29.0326 31.7152 28.4745C31.7504 27.9222 31.75 27.2391 31.75 26.375H30.25ZM25.75 32.75C26.5544 32.75 27.198 32.7505 27.7197 32.7123C28.2493 32.6736 28.7105 32.5923 29.1436 32.4001L28.5352 31.029C28.3251 31.1223 28.057 31.1837 27.6104 31.2163C27.1559 31.2495 26.5764 31.25 25.75 31.25V32.75ZM30.034 29.4146C29.7464 30.1585 29.2014 30.7334 28.5352 31.029L29.1436 32.4001C30.1926 31.9345 31.0103 31.0493 31.4331 29.9555L30.034 29.4146ZM25.75 21.5C26.5764 21.5 27.1559 21.5005 27.6104 21.5337C28.057 21.5663 28.3251 21.6277 28.5352 21.721L29.1436 20.3499C28.7105 20.1577 28.2493 20.0764 27.7197 20.0377C27.198 19.9995 26.5544 20 25.75 20V21.5ZM31.75 26.375C31.75 25.5109 31.7504 24.8278 31.7152 24.2755C31.6796 23.7174 31.6056 23.2407 31.4331 22.7945L30.034 23.3354C30.128 23.5783 30.1872 23.883 30.2182 24.3708C30.2496 24.8644 30.25 25.4918 30.25 26.375H31.75ZM28.5352 21.721C29.2014 22.0166 29.7464 22.5915 30.034 23.3354L31.4331 22.7945C31.0103 21.7007 30.1926 20.8155 29.1436 20.3499L28.5352 21.721ZM22.25 20C21.4456 20 20.8021 19.9995 20.2803 20.0377C19.7507 20.0764 19.2895 20.1577 18.8564 20.3499L19.4648 21.721C19.6749 21.6277 19.943 21.5663 20.3896 21.5337C20.8441 21.5005 21.4236 21.5 22.25 21.5V20ZM17.75 26.375C17.75 25.4918 17.7504 24.8644 17.7818 24.3708C17.8128 23.883 17.872 23.5783 17.966 23.3354L16.5669 22.7945C16.3944 23.2407 16.3204 23.7174 16.2848 24.2755C16.2496 24.8278 16.25 25.5109 16.25 26.375H17.75ZM18.8564 20.3499C17.8074 20.8155 16.9897 21.7007 16.5669 22.7945L17.966 23.3354C18.2536 22.5915 18.7986 22.0166 19.4648 21.721L18.8564 20.3499ZM21.25 20.75V17.375H19.75V20.75H21.25ZM26.75 17.375V20.75H28.25V17.375H26.75ZM24 14.75C25.5447 14.75 26.75 15.9507 26.75 17.375H28.25C28.25 15.0714 26.3213 13.25 24 13.25V14.75ZM21.25 17.375C21.25 15.9507 22.4553 14.75 24 14.75V13.25C21.6787 13.25 19.75 15.0714 19.75 17.375H21.25Z" fill="url(#paint1_linear_1433_985)"/>
<defs>
<linearGradient id="paint0_linear_1433_985" x1="23.9992" y1="3.48418" x2="23.9992" y2="50.1151" gradientUnits="userSpaceOnUse">
<stop stop-color="white"/>
<stop offset="0.93" stop-color="white" stop-opacity="0"/>
</linearGradient>
<linearGradient id="paint1_linear_1433_985" x1="23.9997" y1="13.7679" x2="23.9997" y2="34.7518" gradientUnits="userSpaceOnUse">
<stop stop-color="white"/>
<stop offset="0.93" stop-color="white" stop-opacity="0"/>
</linearGradient>
</defs>
</svg>
