<svg width="28" height="28" viewBox="0 0 28 28" fill="none" xmlns="http://www.w3.org/2000/svg">
<path d="M4.66602 17.5L4.66602 22.1667" stroke="white" stroke-width="1.66667" stroke-linecap="round" stroke-linejoin="round"/>
<path d="M14 10.5L14 22.1667" stroke="white" stroke-width="1.66667" stroke-linecap="round" stroke-linejoin="round"/>
<path d="M25.666 25.6665L2.33268 25.6665" stroke="white" stroke-width="1.66667" stroke-linecap="round" stroke-linejoin="round"/>
<path d="M23.333 15.1665L23.333 22.1665" stroke="white" stroke-width="1.66667" stroke-linecap="round" stroke-linejoin="round"/>
<path d="M6.53312 10.2665C6.10742 9.69981 5.42969 9.33325 4.66634 9.33325C3.37768 9.33325 2.33301 10.3779 2.33301 11.6666C2.33301 12.9552 3.37768 13.9999 4.66634 13.9999C5.95501 13.9999 6.99967 12.9552 6.99967 11.6666C6.99967 11.1413 6.82608 10.6565 6.53312 10.2665ZM6.53312 10.2665L12.1329 6.06667M12.1329 6.06667C12.5586 6.63336 13.2363 6.99992 13.9997 6.99992C14.9132 6.99992 15.704 6.47498 16.0871 5.71031M12.1329 6.06667C11.8399 5.67668 11.6663 5.1919 11.6663 4.66659C11.6663 3.37792 12.711 2.33325 13.9997 2.33325C15.2883 2.33325 16.333 3.37792 16.333 4.66659C16.333 5.04176 16.2445 5.39626 16.0871 5.71031M16.0871 5.71031L21.2456 8.28953M21.2456 8.28953C21.0882 8.60358 20.9997 8.95808 20.9997 9.33325C20.9997 10.6219 22.0443 11.6666 23.333 11.6666C24.6217 11.6666 25.6663 10.6219 25.6663 9.33325C25.6663 8.04459 24.6217 6.99992 23.333 6.99992C22.4195 6.99992 21.6286 7.52485 21.2456 8.28953Z" stroke="white" stroke-width="1.66667"/>
</svg>
