<svg width="37" height="37" viewBox="0 0 37 37" fill="none" xmlns="http://www.w3.org/2000/svg">
<path d="M27.5 17.0062C26.6249 15.3756 24.9095 14.2366 22.9279 14.1489C20.7156 14.0511 18.4683 14 15.9935 14C13.5187 14 11.2714 14.0511 9.05906 14.1489C6.42992 14.2653 4.26943 16.2321 3.91824 18.7426C3.68904 20.3811 3.5 22.0601 3.5 23.7701C3.5 25.48 3.68904 27.1591 3.91824 28.7975C4.26943 31.3081 6.42992 33.2749 9.05906 33.3912C10.1302 33.4386 11.3906 33.475 12.5 33.5" stroke="white" stroke-width="1.5" stroke-linecap="round"/>
<path d="M9.5 14V10.25C9.5 6.52208 12.5221 3.5 16.25 3.5C19.9779 3.5 23 6.52208 23 10.25V14" stroke="white" stroke-width="1.5" stroke-linecap="round" stroke-linejoin="round"/>
<path d="M32.3068 23.1568L31.7814 23.692V23.692L32.3068 23.1568ZM32.9745 24.8635C33.2701 25.1537 33.7449 25.1494 34.0352 24.8538C34.3254 24.5583 34.321 24.0834 34.0255 23.7932L32.9745 24.8635ZM27.5343 23.1568L27.0088 22.6217L27.5343 23.1568ZM28.2019 27.2066C28.4975 27.4968 28.9724 27.4925 29.2626 27.1969C29.5528 26.9013 29.5484 26.4265 29.2529 26.1363L28.2019 27.2066ZM22.2356 31.9943C21.2094 33.0019 19.5401 33.0019 18.5139 31.9943L17.463 33.0646C19.0726 34.6451 21.6768 34.6451 23.2865 33.0646L22.2356 31.9943ZM18.5139 31.9943C17.4954 30.9942 17.4954 29.3785 18.5139 28.3784L17.463 27.3081C15.8457 28.8961 15.8457 31.4766 17.463 33.0646L18.5139 31.9943ZM18.5139 28.3784C19.5401 27.3709 21.2094 27.3709 22.2356 28.3784L23.2865 27.3081C21.6768 25.7276 19.0726 25.7276 17.463 27.3081L18.5139 28.3784ZM22.2356 28.3784C23.2541 29.3785 23.2541 30.9942 22.2356 31.9943L23.2865 33.0646C24.9038 31.4766 24.9038 28.8961 23.2865 27.3081L22.2356 28.3784ZM31.7814 23.692L32.9745 24.8635L34.0255 23.7932L32.8323 22.6217L31.7814 23.692ZM23.2865 28.3785L26.8665 24.8635L25.8157 23.7932L22.2356 27.3081L23.2865 28.3785ZM26.8666 24.8635L28.0597 23.692L27.0088 22.6217L25.8156 23.7932L26.8666 24.8635ZM25.8156 24.8635L28.2019 27.2066L29.2529 26.1363L26.8666 23.7932L25.8156 24.8635ZM32.8323 22.6217C32.2849 22.0841 31.8218 21.6272 31.4036 21.314C30.9676 20.9873 30.4958 20.75 29.9206 20.75V22.25C30.0443 22.25 30.2031 22.2888 30.5043 22.5144C30.8233 22.7534 31.2039 23.1249 31.7814 23.692L32.8323 22.6217ZM28.0597 23.692C28.6372 23.1249 29.0178 22.7534 29.3368 22.5144C29.638 22.2888 29.7968 22.25 29.9206 22.25V20.75C29.3453 20.75 28.8735 20.9873 28.4375 21.314C28.0193 21.6272 27.5562 22.0841 27.0088 22.6217L28.0597 23.692Z" fill="white"/>
</svg>
