<svg width="603" height="448" viewBox="0 0 603 448" fill="none" xmlns="http://www.w3.org/2000/svg">
<g clip-path="url(#clip0_205_326)">
<g opacity="0.5">
<path d="M171.27 368.614C265.838 412.575 395 389.013 459.76 315.986C524.521 242.958 500.357 148.12 405.788 104.158C311.22 60.1965 182.058 83.7589 117.297 156.786C52.537 229.814 76.7012 324.652 171.27 368.614Z" fill="white" fill-opacity="0.04"/>
<path d="M171.27 368.614C265.838 412.575 395 389.013 459.76 315.986C524.521 242.958 500.357 148.12 405.788 104.158C311.22 60.1965 182.058 83.7589 117.297 156.786C52.537 229.814 76.7012 324.652 171.27 368.614Z" stroke="url(#paint0_linear_205_326)" stroke-width="2.87685"/>
<g opacity="0.4">
<path d="M385.604 62.8566C260.408 28.3443 115.28 77.6137 61.4514 172.903C7.62294 268.192 65.4779 373.417 190.674 407.93C315.87 442.442 460.998 393.172 514.827 297.883C568.655 202.594 510.8 97.3689 385.604 62.8566Z" fill="white" fill-opacity="0.08"/>
<path d="M385.604 62.8566C260.408 28.3443 115.28 77.6137 61.4514 172.903C7.62294 268.192 65.4779 373.417 190.674 407.93C315.87 442.442 460.998 393.172 514.827 297.883C568.655 202.594 510.8 97.3689 385.604 62.8566Z" stroke="url(#paint1_linear_205_326)" stroke-width="2.8591"/>
</g>
<path d="M406.547 305.88C462.704 255.338 455.71 182.854 390.924 143.983C326.138 105.111 228.094 114.572 171.937 165.114C115.779 215.656 122.773 288.14 187.559 327.011C252.345 365.883 350.389 356.422 406.547 305.88Z" fill="white" fill-opacity="0.03"/>
<path d="M406.547 305.88C462.704 255.338 455.71 182.854 390.924 143.983C326.138 105.111 228.094 114.572 171.937 165.114C115.779 215.656 122.773 288.14 187.559 327.011C252.345 365.883 350.389 356.422 406.547 305.88Z" stroke="url(#paint2_linear_205_326)" stroke-width="2.88"/>
<g style="mix-blend-mode:hard-light">
<g style="mix-blend-mode:darken">
<path d="M304.759 183.603C317.317 183.603 328.352 186.25 337.863 191.544C347.379 196.832 354.324 204.433 358.698 214.345C359.107 215.122 359.081 215.852 358.619 216.536C358.16 217.211 357.558 217.75 356.815 218.155C356.071 218.56 355.345 218.736 354.637 218.685C353.928 218.634 353.425 218.225 353.127 217.457C349.227 208.205 342.829 201.144 333.932 196.274C325.035 191.404 314.76 188.969 303.106 188.969C291.553 188.969 279.909 191.451 268.172 196.414C256.436 201.377 245.797 208.391 236.257 217.457C235.366 218.327 234.532 218.776 233.757 218.804C232.978 218.827 232.351 218.594 231.877 218.106C231.487 217.701 231.332 217.197 231.412 216.592C231.493 215.987 231.851 215.355 232.487 214.694C242.938 204.991 254.49 197.384 267.142 191.872C279.79 186.359 292.329 183.603 304.759 183.603ZM299.731 200C315.624 200 327.693 205.17 335.937 215.51C344.181 225.851 345.961 238.656 341.278 253.927C339.553 259.551 336.081 264.247 330.862 268.014C325.638 271.782 320.103 273.666 314.258 273.666C308.46 273.666 304.033 271.782 300.976 268.014C297.92 264.247 297.255 259.551 298.979 253.927C300.21 249.913 299.731 246.506 297.54 243.706C295.342 240.915 292.123 239.519 287.883 239.519C283.572 239.519 279.438 240.905 275.481 243.678C271.526 246.445 268.925 249.862 267.679 253.927C264.137 265.477 264.693 275.12 269.348 282.855C274.006 290.595 281.291 295.977 291.203 299C291.969 299.266 292.424 299.707 292.568 300.326C292.712 300.945 292.557 301.605 292.104 302.308C291.676 302.926 291.119 303.482 290.434 303.975C289.75 304.468 288.955 304.598 288.049 304.366C276.956 301.342 268.887 295.389 263.841 286.504C258.795 277.62 258.243 266.761 262.183 253.927C263.91 248.294 267.45 243.589 272.8 239.812C278.151 236.035 283.733 234.147 289.545 234.147C295.357 234.147 299.728 236.035 302.657 239.812C305.587 243.589 306.193 248.294 304.475 253.927C303.228 257.993 303.747 261.412 306.032 264.184C308.316 266.956 311.588 268.342 315.847 268.342C320.107 268.342 324.187 266.945 328.089 264.149C331.99 261.353 334.555 257.946 335.783 253.927C339.989 240.21 338.356 228.681 330.882 219.341C323.419 209.996 312.512 205.324 298.162 205.324C283.813 205.324 270.071 210.012 256.938 219.39C243.805 228.767 235.147 240.268 230.964 253.892C230.094 256.73 229.343 260.274 228.711 264.526C228.079 268.777 227.876 273.696 228.102 279.283C228.126 280.059 227.909 280.743 227.451 281.334C226.984 281.925 226.316 282.395 225.447 282.743C224.578 283.092 223.855 283.104 223.278 282.778C222.716 282.453 222.414 281.922 222.372 281.187C221.969 276.382 222.03 271.787 222.556 267.4C223.081 263.014 224.048 258.525 225.456 253.934C230.141 238.659 239.747 225.853 254.274 215.517C268.801 205.182 283.955 200.012 299.736 200.007M310.271 166.516C317.774 166.516 324.825 167.419 331.422 169.223C338.017 171.023 344.139 173.61 349.789 176.982C350.614 177.475 350.99 178.061 350.915 178.74C350.84 179.419 350.574 180.078 350.116 180.715C349.659 181.352 349.036 181.813 348.249 182.096C347.465 182.385 346.768 182.327 346.159 181.922C340.982 178.512 335.213 175.987 328.851 174.345C322.493 172.707 315.729 171.889 308.559 171.889C301.508 171.889 294.335 172.761 287.039 174.505C279.743 176.254 272.429 178.726 265.098 181.922C264.512 182.234 263.887 182.289 263.225 182.089C262.562 181.889 262.185 181.457 262.093 180.792C262.002 180.126 262.104 179.485 262.398 178.866C262.688 178.247 263.233 177.736 264.034 177.331C271.71 173.754 279.46 171.056 287.283 169.237C295.106 167.419 302.769 166.511 310.271 166.516ZM294.776 217.066C305.667 217.066 313.901 220.611 319.478 227.7C325.056 234.789 326.25 243.533 323.06 253.934C322.813 254.739 322.362 255.388 321.706 255.881C321.049 256.374 320.307 256.621 319.478 256.621C318.806 256.621 318.255 256.374 317.825 255.881C317.405 255.388 317.318 254.739 317.565 253.934C320.295 245.031 319.212 237.554 314.317 231.502C309.422 225.451 302.358 222.427 293.123 222.432C283.889 222.437 274.984 225.46 266.409 231.502C257.833 237.545 252.183 245.017 249.458 253.92C246.511 263.53 245.736 271.643 247.133 278.257C248.53 284.871 251.403 291.574 255.752 298.365C256.248 299.077 256.319 299.787 255.964 300.494C255.609 301.201 255.146 301.768 254.577 302.196C253.884 302.717 253.17 303.001 252.436 303.047C251.703 303.094 251.116 302.81 250.675 302.196C246.08 295.168 243.038 287.881 241.55 280.336C240.062 272.791 240.863 263.988 243.953 253.927C247.141 243.531 253.687 234.786 263.589 227.693C273.492 220.599 283.888 217.057 294.776 217.066ZM283.934 251.255C284.753 251.255 285.338 251.522 285.689 252.057C286.049 252.592 286.119 253.218 285.899 253.934C283.141 262.93 284.161 270.308 288.96 276.066C293.759 281.825 300.587 284.704 309.443 284.704C310.615 284.704 311.874 284.646 313.22 284.53C314.566 284.413 315.944 284.239 317.354 284.006C318.103 283.862 318.675 283.962 319.07 284.306C319.465 284.65 319.659 285.22 319.653 286.016C319.673 286.727 319.349 287.348 318.682 287.879C318.014 288.409 317.259 288.79 316.416 289.023C315.005 289.335 313.51 289.588 311.93 289.783C310.358 289.969 308.982 290.063 307.8 290.063C297.471 290.063 289.526 286.639 283.965 279.792C278.4 272.945 277.21 264.326 280.397 253.934C280.616 253.218 281.059 252.59 281.725 252.05C282.388 251.52 283.126 251.255 283.941 251.255" fill="white"/>
<path d="M299.731 200C315.624 200 327.693 205.17 335.937 215.51C344.181 225.851 345.961 238.656 341.278 253.927C339.553 259.551 336.081 264.247 330.862 268.014C325.638 271.782 320.103 273.666 314.258 273.666C308.46 273.666 304.033 271.782 300.976 268.014C297.92 264.247 297.255 259.551 298.979 253.927C300.21 249.913 299.731 246.506 297.54 243.706C295.342 240.915 292.123 239.519 287.883 239.519C283.572 239.519 279.438 240.905 275.481 243.678C271.526 246.445 268.925 249.862 267.679 253.927C264.137 265.477 264.693 275.12 269.348 282.855C274.006 290.595 281.291 295.977 291.203 299C291.969 299.266 292.424 299.707 292.568 300.326C292.712 300.945 292.557 301.605 292.104 302.308C291.676 302.926 291.119 303.482 290.434 303.975C289.75 304.468 288.955 304.598 288.049 304.366C276.956 301.342 268.887 295.389 263.841 286.504C258.795 277.62 258.243 266.761 262.183 253.927C263.91 248.294 267.45 243.589 272.8 239.812C278.151 236.035 283.733 234.147 289.545 234.147C295.357 234.147 299.728 236.035 302.657 239.812C305.587 243.589 306.193 248.294 304.475 253.927C303.228 257.993 303.747 261.412 306.032 264.184C308.316 266.956 311.588 268.342 315.847 268.342C320.107 268.342 324.187 266.945 328.089 264.149C331.99 261.353 334.555 257.946 335.783 253.927C339.989 240.21 338.356 228.681 330.882 219.341C323.419 209.996 312.512 205.324 298.162 205.324C283.813 205.324 270.071 210.012 256.938 219.39C243.805 228.767 235.147 240.268 230.964 253.892C230.094 256.73 229.343 260.274 228.711 264.526C228.079 268.777 227.876 273.696 228.102 279.283C228.126 280.059 227.909 280.743 227.451 281.334C226.984 281.925 226.316 282.395 225.447 282.743C224.578 283.092 223.855 283.104 223.278 282.778C222.716 282.453 222.414 281.922 222.372 281.187C221.969 276.382 222.03 271.787 222.556 267.4C223.081 263.014 224.048 258.525 225.456 253.934C230.141 238.659 239.747 225.853 254.274 215.517C268.801 205.182 283.955 200.012 299.736 200.007M283.934 251.255C284.753 251.255 285.338 251.522 285.689 252.057C286.049 252.592 286.119 253.218 285.899 253.934C283.141 262.93 284.161 270.308 288.96 276.066C293.759 281.825 300.587 284.704 309.443 284.704C310.615 284.704 311.874 284.646 313.22 284.53C314.566 284.413 315.944 284.239 317.354 284.006C318.103 283.862 318.675 283.962 319.07 284.306C319.465 284.65 319.659 285.22 319.653 286.016C319.673 286.727 319.349 287.348 318.682 287.879C318.014 288.409 317.259 288.79 316.416 289.023C315.005 289.335 313.51 289.588 311.93 289.783C310.358 289.969 308.982 290.063 307.8 290.063C297.471 290.063 289.526 286.639 283.965 279.792C278.4 272.945 277.21 264.326 280.397 253.934C280.616 253.218 281.059 252.59 281.725 252.05C282.388 251.52 283.126 251.255 283.941 251.255M304.759 183.603C317.317 183.603 328.352 186.25 337.863 191.544C347.379 196.832 354.324 204.433 358.698 214.345C359.107 215.122 359.081 215.852 358.619 216.536C358.16 217.211 357.558 217.75 356.815 218.155C356.071 218.56 355.345 218.736 354.637 218.685C353.928 218.634 353.425 218.225 353.127 217.457C349.227 208.205 342.829 201.144 333.932 196.274C325.035 191.404 314.76 188.969 303.106 188.969C291.553 188.969 279.909 191.451 268.172 196.414C256.436 201.377 245.797 208.391 236.257 217.457C235.366 218.327 234.532 218.776 233.757 218.804C232.978 218.827 232.351 218.594 231.877 218.106C231.487 217.701 231.332 217.197 231.412 216.592C231.493 215.987 231.851 215.355 232.487 214.694C242.938 204.991 254.49 197.384 267.142 191.872C279.79 186.359 292.329 183.603 304.759 183.603ZM310.271 166.516C317.774 166.516 324.825 167.419 331.422 169.223C338.017 171.023 344.139 173.61 349.789 176.982C350.614 177.475 350.99 178.061 350.915 178.74C350.84 179.419 350.574 180.078 350.116 180.715C349.659 181.352 349.036 181.813 348.249 182.096C347.465 182.385 346.768 182.327 346.159 181.922C340.982 178.512 335.213 175.987 328.851 174.345C322.493 172.707 315.729 171.889 308.559 171.889C301.508 171.889 294.335 172.761 287.039 174.505C279.743 176.254 272.429 178.726 265.098 181.922C264.512 182.234 263.887 182.289 263.225 182.089C262.562 181.889 262.185 181.457 262.093 180.792C262.002 180.126 262.104 179.485 262.398 178.866C262.688 178.247 263.233 177.736 264.034 177.331C271.71 173.754 279.46 171.056 287.283 169.237C295.106 167.419 302.769 166.511 310.271 166.516ZM294.776 217.066C305.667 217.066 313.901 220.611 319.478 227.7C325.056 234.789 326.25 243.533 323.06 253.934C322.813 254.739 322.362 255.388 321.706 255.881C321.049 256.374 320.307 256.621 319.478 256.621C318.806 256.621 318.255 256.374 317.825 255.881C317.405 255.388 317.318 254.739 317.565 253.934C320.295 245.031 319.212 237.554 314.317 231.502C309.422 225.451 302.358 222.427 293.123 222.432C283.889 222.437 274.984 225.46 266.409 231.502C257.833 237.545 252.183 245.017 249.458 253.92C246.511 263.53 245.736 271.643 247.133 278.257C248.53 284.871 251.403 291.574 255.752 298.365C256.248 299.077 256.319 299.787 255.964 300.494C255.609 301.201 255.146 301.768 254.577 302.196C253.884 302.717 253.17 303.001 252.436 303.047C251.703 303.094 251.116 302.81 250.675 302.196C246.08 295.168 243.038 287.881 241.55 280.336C240.062 272.791 240.863 263.988 243.953 253.927C247.141 243.531 253.687 234.786 263.589 227.693C273.492 220.599 283.888 217.057 294.776 217.066Z" stroke="white" stroke-width="2.88"/>
</g>
</g>
</g>
</g>
<defs>
<linearGradient id="paint0_linear_205_326" x1="504.842" y1="248.589" x2="110.922" y2="38.2208" gradientUnits="userSpaceOnUse">
<stop stop-color="white" stop-opacity="0.2"/>
<stop offset="0.294873" stop-color="white" stop-opacity="0"/>
</linearGradient>
<linearGradient id="paint1_linear_205_326" x1="28.1229" y1="262.635" x2="566.703" y2="401.481" gradientUnits="userSpaceOnUse">
<stop stop-color="white" stop-opacity="0.2"/>
<stop offset="0.294873" stop-color="white" stop-opacity="0"/>
</linearGradient>
<linearGradient id="paint2_linear_205_326" x1="328.827" y1="114.458" x2="231.465" y2="383.871" gradientUnits="userSpaceOnUse">
<stop stop-color="white" stop-opacity="0.2"/>
<stop offset="0.294873" stop-color="white" stop-opacity="0"/>
</linearGradient>
<clipPath id="clip0_205_326">
<rect width="603" height="448" fill="white"/>
</clipPath>
</defs>
</svg>
